<?xml version="1.0" encoding="utf-8"?>
<!-- Generator: Adobe Illustrator 16.0.0, SVG Export Plug-In . SVG Version: 6.00 Build 0)  -->
<!DOCTYPE svg PUBLIC "-//W3C//DTD SVG 1.1//EN" "http://www.w3.org/Graphics/SVG/1.1/DTD/svg11.dtd">
<svg version="1.1" id="Layer_1" xmlns="http://www.w3.org/2000/svg" xmlns:xlink="http://www.w3.org/1999/xlink" x="0px" y="0px"
	 width="23.316px" height="38.396px" viewBox="0 0 23.316 38.396" enable-background="new 0 0 23.316 38.396" xml:space="preserve">
<path fill="#142633" d="M12.398,27.209L23.316,13.73h-15.5l-1.123-3.324C8.176,9.687,8.941,7.98,8.402,6.363
	c-0.54-1.619-2.202-2.517-3.819-2.157L3.28,0.343c-0.09-0.271-0.36-0.404-0.629-0.314l-0.226,0.09
	c-0.271,0.091-0.404,0.359-0.314,0.63l1.349,3.907c-1.214,0.811-1.797,2.382-1.304,3.82c0.495,1.438,1.933,2.336,3.371,2.201
	l1.031,3.01h-6.559l10.918,13.477v9.749H3.774v1.483h15.679v-1.482H12.4L12.398,27.209z"/>
</svg>
