<?xml version="1.0" encoding="utf-8"?>
<!-- Generator: Adobe Illustrator 16.0.0, SVG Export Plug-In . SVG Version: 6.00 Build 0)  -->
<!DOCTYPE svg PUBLIC "-//W3C//DTD SVG 1.1//EN" "http://www.w3.org/Graphics/SVG/1.1/DTD/svg11.dtd">
<svg version="1.1" id="Layer_1" xmlns="http://www.w3.org/2000/svg" xmlns:xlink="http://www.w3.org/1999/xlink" x="0px" y="0px"
	 width="39.818px" height="22.832px" viewBox="0 0 39.818 22.832" enable-background="new 0 0 39.818 22.832" xml:space="preserve">
<g>
	<path fill="#142633" d="M18.382,2c0.418-0.033,0.838-0.055,1.256-0.055h0.541c0.418,0,0.836,0.02,1.257,0.055
		c0.135,0.006,0.262,0.025,0.396,0.039c0.203,0.021,0.404,0.035,0.607,0.068c-0.101-0.513-0.347-0.982-0.707-1.357
		C21.243,0.271,20.588,0.003,19.907,0c-0.603-0.002-1.187,0.207-1.648,0.593c-0.465,0.386-0.774,0.922-0.881,1.515
		c0.201-0.033,0.404-0.047,0.605-0.066C18.12,2.027,18.247,2.006,18.382,2L18.382,2L18.382,2z"/>
	<path fill="#142633" d="M38.716,20.611H1.102c-0.395,0.004-0.759,0.215-0.954,0.559c-0.196,0.342-0.196,0.763,0,1.105
		c0.195,0.342,0.561,0.555,0.954,0.557h37.614c0.396-0.002,0.758-0.215,0.955-0.557c0.197-0.344,0.197-0.765,0-1.105
		C39.474,20.826,39.111,20.615,38.716,20.611z"/>
	<path fill="#142633" d="M22.765,4.013c-0.854-0.143-1.721-0.214-2.586-0.216h-0.541c-0.864,0.002-1.729,0.073-2.584,0.217
		c-3.493,0.603-6.67,2.399-8.983,5.086c-2.314,2.687-3.622,6.093-3.701,9.638h31.08c-0.07-3.547-1.375-6.959-3.691-9.646
		C29.444,6.404,26.261,4.609,22.765,4.013L22.765,4.013z"/>
</g>
</svg>
