<?xml version="1.0" encoding="utf-8"?>
<!-- Generator: Adobe Illustrator 16.0.0, SVG Export Plug-In . SVG Version: 6.00 Build 0)  -->
<!DOCTYPE svg PUBLIC "-//W3C//DTD SVG 1.1//EN" "http://www.w3.org/Graphics/SVG/1.1/DTD/svg11.dtd">
<svg version="1.1" id="Layer_1" xmlns="http://www.w3.org/2000/svg" xmlns:xlink="http://www.w3.org/1999/xlink" x="0px" y="0px"
	 width="38.012px" height="29.234px" viewBox="0 0 38.012 29.234" enable-background="new 0 0 38.012 29.234" xml:space="preserve">
<g>
	<path fill="#142633" d="M36.091,19.323H24.738c-0.488,0-0.885-0.415-0.885-0.929c0-0.513,0.396-0.929,0.885-0.929h11.354
		c0.489,0,0.884,0.416,0.884,0.929C36.975,18.907,36.58,19.323,36.091,19.323L36.091,19.323z"/>
	<path fill="#142633" d="M11.435,12.034c-3.16,0-5.732-2.699-5.732-6.019c0-3.316,2.572-6.017,5.732-6.017
		c3.161,0,5.733,2.698,5.733,6.017C17.17,9.335,14.596,12.034,11.435,12.034z"/>
	<path fill="#142633" d="M37.57,16.35H23.26c-0.129,0-0.247-0.059-0.332-0.155c-0.083-0.1-0.122-0.231-0.105-0.365
		c0.425-3.678,3.168-6.558,6.673-7.002c4.234-0.537,8.012,2.654,8.514,7.002c0.017,0.134-0.023,0.265-0.108,0.365
		C37.817,16.294,37.697,16.35,37.57,16.35L37.57,16.35z"/>
	<path fill="#142633" d="M31.503,7.897c0,0.632-0.487,1.144-1.09,1.144c-0.601,0-1.089-0.512-1.089-1.144
		c0-0.631,0.488-1.143,1.089-1.143C31.016,6.754,31.503,7.266,31.503,7.897"/>
	<path fill="#142633" d="M27.332,21.648h-5.537c-0.147,0-0.289-0.076-0.369-0.208l-3.551-5.649
		c-0.473-0.752-1.268-1.201-2.123-1.201H15.56c-0.078,3.45-0.97,6.528-2.329,7.947c-0.556,0.58-1.159,0.872-1.797,0.872h-0.01
		c-2.25-0.009-4.02-3.849-4.122-8.821H6.416c-3.539,0-6.417,3.021-6.417,6.736v7.908h4.153v-8.566c0-0.604,0.468-1.096,1.044-1.096
		c0.575,0,1.044,0.489,1.044,1.096v8.57h10.387v-5.97c0-0.205,0.129-0.384,0.316-0.443c0.188-0.061,0.389,0.019,0.496,0.188
		l1.88,2.995h8.013c1.145,0,2.077-0.979,2.077-2.18S28.477,21.65,27.332,21.648L27.332,21.648z"/>
	<path fill="#142633" d="M12.262,17.284c0,0.479-0.371,0.867-0.827,0.867c-0.457,0-0.824-0.39-0.824-0.867
		c0-0.48,0.367-0.868,0.824-0.868C11.891,16.416,12.262,16.803,12.262,17.284"/>
</g>
</svg>
