<?xml version="1.0" encoding="utf-8"?>
<!-- Generator: Adobe Illustrator 16.0.0, SVG Export Plug-In . SVG Version: 6.00 Build 0)  -->
<!DOCTYPE svg PUBLIC "-//W3C//DTD SVG 1.1//EN" "http://www.w3.org/Graphics/SVG/1.1/DTD/svg11.dtd">
<svg version="1.1" id="Layer_1" xmlns="http://www.w3.org/2000/svg" xmlns:xlink="http://www.w3.org/1999/xlink" x="0px" y="0px"
	 width="40.145px" height="33.457px" viewBox="0 0 40.145 33.457" enable-background="new 0 0 40.145 33.457" xml:space="preserve">
<g>
	<path fill="#142633" d="M31.781,16.729c0,4.619-5.242,8.363-11.708,8.363c-6.467,0-11.708-3.744-11.708-8.363
		c0-4.618,5.241-8.362,11.708-8.362C26.539,8.367,31.781,12.111,31.781,16.729"/>
	<path fill="#142633" d="M7.531,21.746c0.173,0,0.324-0.063,0.46-0.156c0.022-0.018,0.045-0.026,0.067-0.047
		c0.123-0.104,0.211-0.237,0.26-0.396c0.005-0.015,0.019-0.021,0.021-0.035c0.008-0.033,0-0.066,0.004-0.1
		c0.004-0.035,0.021-0.064,0.021-0.101c0-0.022-0.013-0.042-0.015-0.063c-0.005-0.06-0.018-0.109-0.032-0.164
		c-0.017-0.054-0.03-0.103-0.055-0.148c-0.023-0.046-0.055-0.087-0.087-0.129c-0.033-0.043-0.065-0.086-0.107-0.119
		c-0.039-0.034-0.081-0.059-0.123-0.084c-0.052-0.031-0.103-0.057-0.157-0.076c-0.021-0.006-0.035-0.021-0.059-0.027l-1.04-0.258
		V13.62l1.04-0.26c0.021-0.004,0.036-0.021,0.058-0.025c0.056-0.02,0.106-0.046,0.157-0.076c0.043-0.027,0.087-0.051,0.124-0.084
		c0.041-0.037,0.073-0.076,0.106-0.119c0.032-0.043,0.063-0.084,0.087-0.129c0.024-0.047,0.039-0.096,0.056-0.147
		c0.016-0.056,0.027-0.107,0.031-0.166c0.003-0.021,0.016-0.041,0.016-0.063c0-0.037-0.018-0.066-0.021-0.102
		c-0.005-0.035,0.004-0.066-0.005-0.102c-0.006-0.021-0.02-0.037-0.026-0.058c-0.019-0.058-0.046-0.106-0.074-0.156
		c-0.025-0.045-0.054-0.089-0.086-0.129c-0.033-0.039-0.071-0.069-0.112-0.103c-0.045-0.034-0.09-0.069-0.144-0.094
		c-0.041-0.021-0.083-0.033-0.128-0.047c-0.061-0.02-0.117-0.033-0.182-0.037c-0.021-0.002-0.039-0.012-0.06-0.012H2.508
		c-0.462,0-0.836,0.375-0.836,0.836c0,0.213,0.085,0.402,0.215,0.549l-1.254,0.314c-0.373,0.09-0.634,0.424-0.634,0.809v5.02
		c0,0.383,0.261,0.718,0.634,0.812l1.254,0.314c-0.13,0.146-0.215,0.334-0.215,0.547c0,0.462,0.374,0.836,0.836,0.836h5.019
		L7.531,21.746L7.531,21.746L7.531,21.746z M1.674,14.873l3.346-0.836v5.385l-3.346-0.836V14.873z"/>
	<path fill="#142633" d="M19.078,26.961c-0.006-0.053-0.02-0.103-0.033-0.153c-0.016-0.052-0.03-0.103-0.056-0.148
		c-0.022-0.045-0.054-0.085-0.085-0.127c-0.035-0.045-0.072-0.088-0.116-0.125c-0.018-0.016-0.024-0.033-0.043-0.047
		c-0.028-0.021-0.063-0.027-0.095-0.043c-0.029-0.019-0.052-0.043-0.086-0.057c-0.02-0.009-0.042-0.005-0.062-0.012
		c-0.059-0.02-0.115-0.025-0.176-0.032c-0.048-0.004-0.097-0.008-0.145-0.004c-0.059,0.004-0.11,0.019-0.167,0.034
		c-0.049,0.016-0.094,0.027-0.139,0.05c-0.049,0.025-0.089,0.056-0.133,0.091c-0.045,0.035-0.085,0.07-0.122,0.114
		c-0.016,0.017-0.034,0.024-0.047,0.043l-0.63,0.868l-5.771-2.321l0.146-1.061c0.003-0.021-0.007-0.041-0.003-0.063
		c0.003-0.059-0.004-0.113-0.012-0.173c-0.009-0.051-0.015-0.1-0.03-0.147c-0.02-0.053-0.045-0.098-0.07-0.146
		c-0.027-0.045-0.054-0.09-0.087-0.13c-0.035-0.04-0.074-0.071-0.118-0.104c-0.045-0.035-0.088-0.067-0.141-0.094
		c-0.021-0.01-0.033-0.025-0.056-0.035c-0.033-0.013-0.067-0.01-0.102-0.018c-0.033-0.009-0.062-0.029-0.097-0.033
		c-0.021-0.004-0.041,0.004-0.063,0.004c-0.057-0.004-0.112,0-0.167,0.01c-0.059,0.008-0.113,0.017-0.168,0.035
		c-0.038,0.016-0.073,0.034-0.109,0.053c-0.059,0.031-0.112,0.064-0.164,0.11c-0.029,0.026-0.052,0.058-0.077,0.089
		c-0.043,0.053-0.078,0.104-0.109,0.164c-0.009,0.021-0.023,0.031-0.03,0.051l-1.872,4.656c-0.172,0.428,0.035,0.914,0.464,1.086
		c0.104,0.041,0.209,0.062,0.313,0.062c0.101,0,0.188-0.05,0.282-0.085l-0.183,1.31c-0.053,0.38,0.16,0.748,0.519,0.89l4.652,1.873
		c0.104,0.039,0.208,0.061,0.313,0.061c0.264,0,0.518-0.125,0.678-0.348l0.76-1.047c0.09,0.176,0.231,0.326,0.429,0.403
		c0.102,0.039,0.209,0.062,0.313,0.062c0.332,0,0.646-0.199,0.776-0.523l1.872-4.656c0.008-0.021,0.005-0.043,0.012-0.063
		c0.016-0.056,0.025-0.11,0.032-0.168C19.078,27.063,19.082,27.013,19.078,26.961L19.078,26.961z M13.912,31.599l-3.444-1.385
		l0.474-3.416l4.995,2.008L13.912,31.599z"/>
	<path fill="#142633" d="M30.5,23.604c-0.01-0.022-0.025-0.034-0.037-0.055c-0.025-0.055-0.059-0.102-0.098-0.148
		c-0.029-0.036-0.059-0.071-0.092-0.104c-0.051-0.045-0.104-0.078-0.164-0.109c-0.033-0.02-0.063-0.037-0.102-0.049
		c-0.063-0.023-0.123-0.035-0.189-0.041c-0.049-0.006-0.096-0.01-0.146-0.006c-0.023,0.002-0.043-0.008-0.066-0.004
		c-0.033,0.006-0.061,0.025-0.094,0.033s-0.068,0.006-0.104,0.018c-0.021,0.01-0.035,0.026-0.055,0.035
		c-0.053,0.025-0.096,0.059-0.143,0.094c-0.041,0.033-0.08,0.064-0.115,0.104c-0.035,0.04-0.061,0.084-0.088,0.13
		c-0.027,0.047-0.053,0.093-0.07,0.146c-0.018,0.049-0.023,0.098-0.029,0.148c-0.01,0.057-0.016,0.111-0.012,0.172
		c0.002,0.022-0.008,0.043-0.004,0.063l0.148,1.061l-5.771,2.322l-0.629-0.869c-0.014-0.019-0.035-0.028-0.051-0.045
		c-0.037-0.041-0.076-0.076-0.119-0.108c-0.043-0.035-0.086-0.067-0.135-0.094c-0.045-0.023-0.094-0.035-0.141-0.052
		c-0.055-0.017-0.105-0.031-0.16-0.035c-0.051-0.004-0.102,0-0.152,0.006c-0.057,0.005-0.113,0.013-0.168,0.029
		c-0.021,0.007-0.043,0.004-0.063,0.012c-0.035,0.015-0.057,0.039-0.088,0.058c-0.029,0.018-0.063,0.021-0.094,0.043
		c-0.018,0.014-0.025,0.033-0.043,0.049c-0.043,0.039-0.08,0.08-0.115,0.126c-0.031,0.042-0.063,0.082-0.088,0.129
		c-0.023,0.048-0.037,0.097-0.053,0.149c-0.016,0.051-0.029,0.102-0.033,0.154c-0.006,0.053,0,0.102,0.004,0.153
		c0.006,0.058,0.016,0.112,0.033,0.168c0.006,0.021,0.002,0.043,0.012,0.063l1.873,4.654c0.133,0.326,0.443,0.523,0.775,0.523
		c0.104,0,0.209-0.021,0.313-0.062c0.197-0.077,0.342-0.229,0.43-0.403l0.76,1.047c0.16,0.223,0.416,0.346,0.678,0.346
		c0.105,0,0.211-0.021,0.313-0.061l4.652-1.873c0.357-0.144,0.57-0.51,0.52-0.891l-0.182-1.31c0.094,0.034,0.182,0.085,0.281,0.085
		c0.104,0,0.209-0.021,0.313-0.061c0.43-0.174,0.637-0.658,0.465-1.088L30.5,23.604z M26.306,31.599l-2.023-2.791l4.996-2.008
		l0.471,3.414L26.306,31.599z"/>
	<path fill="#142633" d="M40.142,14.22c0-0.172-0.057-0.328-0.148-0.465c-0.008-0.01-0.01-0.021-0.018-0.031
		c-0.092-0.125-0.225-0.217-0.375-0.273c-0.012-0.005-0.018-0.02-0.029-0.023l-1.26-0.42c0.094-0.132,0.158-0.283,0.158-0.458
		c0-0.463-0.375-0.836-0.836-0.836h-5.016c-0.021,0-0.039,0.011-0.059,0.013c-0.066,0.004-0.127,0.018-0.188,0.037
		c-0.043,0.014-0.084,0.024-0.123,0.045c-0.055,0.024-0.104,0.061-0.15,0.1c-0.037,0.029-0.072,0.061-0.104,0.095
		c-0.035,0.04-0.063,0.085-0.09,0.134s-0.053,0.098-0.074,0.152c-0.006,0.021-0.021,0.035-0.027,0.057
		c-0.008,0.034,0,0.067-0.004,0.103c-0.002,0.036-0.02,0.065-0.02,0.104c0,0.022,0.012,0.04,0.014,0.063
		c0.004,0.06,0.018,0.111,0.033,0.166c0.016,0.053,0.029,0.102,0.053,0.146c0.023,0.047,0.055,0.088,0.088,0.129
		c0.033,0.045,0.066,0.086,0.107,0.121c0.039,0.032,0.082,0.057,0.125,0.084c0.049,0.03,0.1,0.057,0.156,0.075
		c0.021,0.006,0.035,0.021,0.059,0.026l1.039,0.259v6.224l-1.039,0.258c-0.023,0.006-0.037,0.021-0.059,0.026
		c-0.057,0.021-0.107,0.046-0.156,0.076c-0.043,0.026-0.086,0.05-0.123,0.084c-0.041,0.036-0.076,0.076-0.109,0.12
		c-0.031,0.042-0.063,0.082-0.086,0.128c-0.021,0.048-0.039,0.096-0.053,0.147c-0.02,0.056-0.031,0.105-0.033,0.166
		c-0.004,0.021-0.016,0.039-0.016,0.063c0,0.037,0.018,0.066,0.02,0.102c0.006,0.033-0.002,0.066,0.006,0.101
		c0.004,0.014,0.02,0.021,0.021,0.034c0.047,0.16,0.135,0.293,0.26,0.396c0.021,0.02,0.043,0.031,0.068,0.047
		c0.133,0.09,0.287,0.154,0.461,0.154h0.002h5.016c0.463,0,0.838-0.375,0.838-0.836c0-0.174-0.064-0.326-0.158-0.46l1.26-0.42
		c0.014-0.005,0.018-0.019,0.029-0.024c0.15-0.058,0.281-0.148,0.373-0.273c0.01-0.01,0.012-0.021,0.018-0.03
		c0.094-0.138,0.15-0.293,0.15-0.466L40.142,14.22z M35.127,14.037l3.346,0.836v3.713l-3.346,0.836V14.037z"/>
	<path fill="#142633" d="M21.138,6.496c0.006,0.054,0.021,0.104,0.033,0.153c0.018,0.052,0.031,0.103,0.057,0.148
		c0.023,0.047,0.055,0.086,0.086,0.127c0.035,0.045,0.07,0.088,0.117,0.125c0.018,0.016,0.023,0.035,0.043,0.047
		c0.029,0.021,0.063,0.025,0.092,0.043c0.029,0.017,0.055,0.043,0.088,0.058c0.021,0.008,0.045,0.006,0.066,0.014
		c0.049,0.015,0.098,0.022,0.148,0.027c0.031,0.004,0.064,0.02,0.098,0.02c0.016,0,0.029-0.014,0.045-0.014
		c0.145-0.009,0.281-0.044,0.404-0.123c0.018-0.01,0.027-0.026,0.041-0.037c0.068-0.051,0.135-0.103,0.186-0.171l0.629-0.866
		l5.77,2.318l-0.146,1.061C28.89,9.448,28.9,9.468,28.898,9.49c-0.004,0.059,0.002,0.112,0.01,0.172
		c0.01,0.052,0.016,0.101,0.031,0.147c0.02,0.054,0.045,0.099,0.07,0.146c0.027,0.047,0.055,0.09,0.09,0.13s0.072,0.071,0.115,0.104
		c0.045,0.035,0.088,0.066,0.141,0.093c0.021,0.01,0.033,0.026,0.055,0.034c0.035,0.014,0.07,0.013,0.105,0.021
		c0.031,0.009,0.059,0.027,0.09,0.031c0.039,0.006,0.076,0.01,0.113,0.01c0.152,0,0.293-0.053,0.416-0.126
		c0.025-0.014,0.045-0.025,0.07-0.04c0.115-0.086,0.209-0.194,0.27-0.332c0.004-0.011,0.018-0.015,0.021-0.026l1.871-4.656
		c0.172-0.428-0.035-0.914-0.463-1.086c-0.195-0.081-0.404-0.07-0.59-0.006l0.178-1.281c0.053-0.381-0.16-0.748-0.518-0.891
		l-4.656-1.871c-0.355-0.144-0.766-0.026-0.988,0.285l-0.758,1.045C24.48,1.217,24.34,1.067,24.14,0.989
		c-0.426-0.172-0.914,0.035-1.086,0.463l-1.871,4.656c-0.01,0.02-0.006,0.041-0.012,0.063c-0.018,0.057-0.025,0.111-0.033,0.168
		C21.14,6.394,21.135,6.444,21.138,6.496L21.138,6.496z M26.304,1.856l3.445,1.386l-0.473,3.416l-4.994-2.009L26.304,1.856z"/>
	<path fill="#142633" d="M9.721,9.853C9.726,9.865,9.74,9.871,9.743,9.88c0.06,0.135,0.15,0.246,0.269,0.331
		c0.024,0.017,0.045,0.027,0.068,0.042c0.126,0.074,0.264,0.125,0.415,0.125c0.036,0,0.075-0.002,0.113-0.008
		c0.032-0.006,0.06-0.023,0.091-0.031c0.037-0.012,0.073-0.008,0.107-0.021c0.022-0.01,0.035-0.024,0.055-0.035
		c0.052-0.026,0.097-0.059,0.143-0.094c0.042-0.033,0.082-0.063,0.116-0.104c0.034-0.039,0.062-0.082,0.088-0.129
		s0.052-0.093,0.07-0.144c0.017-0.049,0.023-0.099,0.03-0.149c0.01-0.058,0.016-0.112,0.012-0.172
		c-0.002-0.021,0.006-0.041,0.004-0.063l-0.146-1.063l5.771-2.321l0.63,0.866c0.052,0.072,0.12,0.124,0.188,0.174
		c0.017,0.01,0.023,0.025,0.039,0.035c0.123,0.078,0.264,0.115,0.406,0.121c0.016,0.002,0.027,0.014,0.044,0.014
		c0.029,0,0.061-0.015,0.092-0.018c0.051-0.002,0.102-0.01,0.153-0.026c0.021-0.007,0.044-0.003,0.063-0.013
		c0.034-0.012,0.056-0.037,0.085-0.055c0.031-0.017,0.066-0.021,0.096-0.043c0.019-0.015,0.025-0.033,0.043-0.05
		c0.044-0.038,0.081-0.077,0.115-0.125c0.031-0.042,0.063-0.082,0.088-0.129c0.023-0.049,0.038-0.098,0.054-0.149
		c0.015-0.051,0.027-0.103,0.033-0.154c0.004-0.053,0-0.102-0.006-0.154C19.067,6.28,19.057,6.226,19.04,6.17
		c-0.007-0.022-0.004-0.044-0.012-0.063l-1.873-4.654c-0.177-0.43-0.662-0.637-1.087-0.464c-0.197,0.082-0.34,0.229-0.428,0.405
		l-0.76-1.047c-0.225-0.313-0.636-0.429-0.988-0.285L9.24,1.933C8.882,2.076,8.67,2.445,8.721,2.824L8.9,4.106
		C8.713,4.041,8.504,4.033,8.309,4.108C7.881,4.283,7.673,4.771,7.846,5.197L9.721,9.853z M13.912,1.856l2.023,2.791l-4.994,2.011
		l-0.475-3.416L13.912,1.856z"/>
</g>
</svg>
