<?xml version="1.0" encoding="utf-8"?>
<!-- Generator: Adobe Illustrator 16.0.0, SVG Export Plug-In . SVG Version: 6.00 Build 0)  -->
<!DOCTYPE svg PUBLIC "-//W3C//DTD SVG 1.1//EN" "http://www.w3.org/Graphics/SVG/1.1/DTD/svg11.dtd">
<svg version="1.1" id="Layer_1" xmlns="http://www.w3.org/2000/svg" xmlns:xlink="http://www.w3.org/1999/xlink" x="0px" y="0px"
	 width="41.725px" height="30.188px" viewBox="0 0 41.725 30.188" enable-background="new 0 0 41.725 30.188" xml:space="preserve">
<g>
	<path fill="#142633" d="M20.927,11.741c2.87,0,5.206-2.634,5.206-5.871c0-3.236-2.336-5.87-5.206-5.87
		c-2.87,0-5.206,2.634-5.206,5.87S18.057,11.741,20.927,11.741z"/>
	<path fill="#142633" d="M7.416,17.447c-1.591,0-3.106-0.869-4.054-2.324c-0.07-0.11-0.207-0.135-0.306-0.054
		C1.143,16.64,0,19.17,0,21.832c0,0.041,0.011,4.184,0.033,4.467c0.013,0.129,0.106,0.225,0.22,0.225h9.249
		c-0.012-2.314-0.016-4.889-0.016-4.934c0-1.891,0.389-3.73,1.08-5.408C9.681,16.986,8.57,17.447,7.416,17.447L7.416,17.447z"/>
	<path fill="#142633" d="M38.669,15.07c-0.1-0.08-0.234-0.058-0.305,0.054c-0.963,1.476-2.441,2.324-4.055,2.324
		c-1.074,0-2.109-0.404-2.963-1.107c0.65,1.637,1.018,3.418,1.018,5.25c0,0.043-0.004,2.615-0.014,4.934h9.119
		c0.113,0,0.209-0.098,0.221-0.225c0.023-0.283,0.035-4.426,0.035-4.467C41.728,19.17,40.585,16.642,38.669,15.07L38.669,15.07z"/>
	<path fill="#142633" d="M26.62,12.759c-0.102-0.081-0.236-0.057-0.309,0.053c-1.258,1.935-3.271,3.088-5.384,3.088
		c-2.113,0-4.127-1.155-5.388-3.088c-0.072-0.108-0.209-0.133-0.307-0.053c-2.499,2.051-3.989,5.352-3.989,8.831
		c0,0.078,0.017,8.014,0.045,8.373c0.01,0.127,0.104,0.225,0.219,0.225h18.837c0.111,0,0.207-0.098,0.219-0.225
		c0.031-0.363,0.045-8.295,0.045-8.373C30.609,18.111,29.116,14.81,26.62,12.759L26.62,12.759z"/>
	<path fill="#142633" d="M7.416,13.482c2.214,0,4.014-2.031,4.014-4.525s-1.8-4.522-4.014-4.522c-2.212,0-4.011,2.028-4.011,4.522
		S5.204,13.482,7.416,13.482z"/>
	<path fill="#142633" d="M34.31,13.482c2.211,0,4.014-2.031,4.014-4.525s-1.803-4.522-4.014-4.522s-4.012,2.028-4.012,4.522
		S32.099,13.482,34.31,13.482z"/>
</g>
</svg>
