<?xml version="1.0" encoding="utf-8"?>
<!-- Generator: Adobe Illustrator 16.0.0, SVG Export Plug-In . SVG Version: 6.00 Build 0)  -->
<!DOCTYPE svg PUBLIC "-//W3C//DTD SVG 1.1//EN" "http://www.w3.org/Graphics/SVG/1.1/DTD/svg11.dtd">
<svg version="1.1" id="Layer_1" xmlns="http://www.w3.org/2000/svg" xmlns:xlink="http://www.w3.org/1999/xlink" x="0px" y="0px"
	 width="38.186px" height="25.305px" viewBox="0 0 38.186 25.305" enable-background="new 0 0 38.186 25.305" xml:space="preserve">
<g>
	<path fill="#142633" d="M7.126,12.653C7.128,5.665,12.563,0.001,19.268,0.001c6.706,0,12.141,5.663,12.143,12.652
		c-0.002,6.988-5.436,12.648-12.143,12.652C12.562,25.301,7.128,19.641,7.126,12.653z M10.694,12.653
		c0.011,4.929,3.841,8.923,8.573,8.933c4.734-0.01,8.566-4.002,8.574-8.933c-0.008-4.933-3.838-8.925-8.572-8.937
		C14.535,3.727,10.708,7.72,10.694,12.653L10.694,12.653z"/>
	<path fill="#142633" d="M11.919,12.653c0.01,4.228,3.293,7.652,7.352,7.658c4.059-0.006,7.342-3.428,7.348-7.658
		c-0.008-4.229-3.289-7.652-7.348-7.661C15.212,5.001,11.927,8.424,11.919,12.653z"/>
	<path fill="#142633" d="M38.185,5.098c0-2.245-1.365-4.064-3.051-4.064c-1.682,0-3.047,1.819-3.047,4.064
		c0,1.861,0.939,3.43,2.223,3.909v14.407c0,0.471,0.369,0.855,0.824,0.855c0.453,0,0.824-0.385,0.824-0.855V9.008
		C37.243,8.53,38.185,6.961,38.185,5.098L38.185,5.098z"/>
	<path fill="#142633" d="M4.697,1.269H4.205v6.175H3.339V1.269H2.122v6.175H1.257V1.269H0.76c-0.422,0-0.76,0.402-0.76,0.9v6.188
		c0,0.493,0.338,0.897,0.76,0.897h1.146v14.159c0,0.473,0.369,0.855,0.823,0.855c0.456,0,0.825-0.385,0.825-0.855V9.256h1.143
		c0.421,0,0.765-0.403,0.765-0.897V2.17C5.462,1.672,5.118,1.269,4.697,1.269L4.697,1.269z"/>
</g>
</svg>
