<?xml version="1.0" encoding="utf-8"?>
<!-- Generator: Adobe Illustrator 16.0.0, SVG Export Plug-In . SVG Version: 6.00 Build 0)  -->
<!DOCTYPE svg PUBLIC "-//W3C//DTD SVG 1.1//EN" "http://www.w3.org/Graphics/SVG/1.1/DTD/svg11.dtd">
<svg version="1.1" id="Layer_1" xmlns="http://www.w3.org/2000/svg" xmlns:xlink="http://www.w3.org/1999/xlink" x="0px" y="0px"
	 width="141.715px" height="73.675px" viewBox="0 0 141.715 73.675" enable-background="new 0 0 141.715 73.675"
	 xml:space="preserve">
<g>
	<path fill="#B4CAB1" d="M77.485,34.794c5.57-0.451,10.701-1.498,14.852-3.058c6.385-2.405,9.758-5.778,9.758-9.719v-0.123h-0.002
		c0.039-0.165,0.059-0.337,0.059-0.509v-6.711v-0.041v-0.041V14.5c0.002-0.066,0.002-0.133,0-0.197
		c-0.186-3.812-3.543-7.052-9.748-9.388c-5.68-2.138-13.199-3.317-21.177-3.317c-7.976,0-15.493,1.18-21.178,3.317
		c-6.38,2.402-9.756,5.777-9.756,9.72h0.001c-0.033,0.16-0.051,0.324-0.052,0.49v6.889c0,3.953,3.373,7.316,9.757,9.719
		c4.165,1.57,9.318,2.617,14.914,3.059L48.735,70.671c-0.41,0.987-0.082,2.182,0.741,2.699c0.822,0.516,1.846,0.168,2.31-0.787
		l16.916-37.558c0.809,0.024,1.621,0.038,2.441,0.038s1.678,0,2.507-0.042l16.917,37.562h0.002c0.301,0.666,0.887,1.082,1.525,1.082
		c0.281,0.002,0.561-0.08,0.809-0.238c0.844-0.527,1.166-1.762,0.719-2.756L77.485,34.794z M71.222,5.673
		c16.757,0,27.454,5.295,27.478,8.946v0.024c-0.023,3.653-10.723,8.946-27.478,8.946c-16.755,0-27.475-5.307-27.475-8.957
		c0-3.651,10.694-8.946,27.462-8.946L71.222,5.673z M43.669,22.028v-1.125c1.588,1.302,3.716,2.464,6.363,3.46
		c5.682,2.143,13.203,3.316,21.177,3.316c7.972,0,15.497-1.176,21.178-3.316c2.592-0.98,4.709-2.119,6.287-3.398v0.424v0.127
		c-0.039,0.168-0.059,0.341-0.059,0.514c0,3.654-10.705,8.956-27.476,8.956C54.367,30.984,43.67,25.681,43.669,22.028L43.669,22.028
		z"/>
	<path fill="#B4CAB1" d="M140.54,0.127c-0.436-0.173-0.908-0.134-1.32,0.106c-0.41,0.242-0.723,0.665-0.867,1.178L137.973,2.7
		c-1.65,5.809-2.514,15.269-2.514,21.606V35.38h-30.139c-3.494,0-6.336,3.445-6.336,7.682v28.551c0,1.125,0.771,2.039,1.727,2.039
		s1.729-0.914,1.729-2.039V46.011h33.025v25.625c0,1.127,0.773,2.039,1.729,2.039c0.957,0,1.729-0.912,1.729-2.039v-47.33
		c0-5.862,0.818-14.954,2.336-20.311l0.371-1.302c0.295-1.063-0.188-2.208-1.088-2.565L140.54,0.127z M102.592,41.933
		c0.355-1.438,1.459-2.438,2.729-2.465h30.145v2.465H102.592z"/>
	<path fill="#B4CAB1" d="M36.397,35.378H6.253V24.304c0-6.34-0.863-15.798-2.514-21.607L3.368,1.392H3.367
		C3.063,0.323,2.083-0.251,1.178,0.107C0.273,0.465-0.215,1.623,0.09,2.691l0.371,1.301c1.519,5.34,2.337,14.45,2.337,20.313v47.32
		c0,1.127,0.772,2.039,1.728,2.039s1.728-0.912,1.728-2.039V46.009h33.022v25.625c0,1.125,0.773,2.037,1.729,2.037
		c0.954,0,1.729-0.912,1.729-2.037V43.082C42.732,38.824,39.891,35.378,36.397,35.378L36.397,35.378z M6.253,39.457h30.144
		c1.269,0.028,2.373,1.026,2.728,2.465H6.252L6.253,39.457z"/>
</g>
</svg>
