<?xml version="1.0" encoding="utf-8"?>
<!-- Generator: Adobe Illustrator 16.0.0, SVG Export Plug-In . SVG Version: 6.00 Build 0)  -->
<!DOCTYPE svg PUBLIC "-//W3C//DTD SVG 1.1//EN" "http://www.w3.org/Graphics/SVG/1.1/DTD/svg11.dtd">
<svg version="1.1" id="Layer_1" xmlns="http://www.w3.org/2000/svg" xmlns:xlink="http://www.w3.org/1999/xlink" x="0px" y="0px"
	 width="29.475px" height="31.008px" viewBox="0 0 29.475 31.008" enable-background="new 0 0 29.475 31.008" xml:space="preserve">
<g>
	<g>
		<path fill="#142633" d="M28.366,7.4L22.04,1.076C21.357,0.391,20.411,0,19.433,0H2.707C1.205,0,0,1.207,0,2.707v25.594
			c0,1.5,1.205,2.707,2.707,2.707h24.062c1.5,0,2.707-1.207,2.707-2.707V10.042C29.476,9.03,29.083,8.117,28.366,7.4z
			 M14.738,24.746c-5.119,0-9.261-4.142-9.261-9.26c0-5.119,4.142-9.261,9.261-9.261c5.119,0,9.259,4.142,9.259,9.261
			S19.857,24.746,14.738,24.746z"/>
	</g>
	<g>
		<path fill="#142633" d="M18.39,14.835c-0.195-0.196-0.488-0.196-0.652,0l-1.729,1.728v-6.358c0-0.261-0.195-0.456-0.455-0.456
			h-1.631c-0.262,0-0.456,0.195-0.456,0.456v6.357l-1.729-1.728c-0.195-0.196-0.489-0.196-0.651,0l-1.143,1.142
			c-0.195,0.195-0.195,0.455,0,0.651l4.467,4.467c0.197,0.195,0.457,0.195,0.653,0l4.467-4.467c0.195-0.196,0.195-0.456,0-0.651
			L18.39,14.835z"/>
	</g>
</g>
</svg>
