<?xml version="1.0" encoding="utf-8"?>
<!-- Generator: Adobe Illustrator 16.0.0, SVG Export Plug-In . SVG Version: 6.00 Build 0)  -->
<!DOCTYPE svg PUBLIC "-//W3C//DTD SVG 1.1//EN" "http://www.w3.org/Graphics/SVG/1.1/DTD/svg11.dtd">
<svg version="1.1" id="Layer_1" xmlns="http://www.w3.org/2000/svg" xmlns:xlink="http://www.w3.org/1999/xlink" x="0px" y="0px"
	 width="134.131px" height="101.854px" viewBox="0 0 134.131 101.854" enable-background="new 0 0 134.131 101.854"
	 xml:space="preserve">
<g>
	<path fill="#B4CAB1" d="M122.991,49.666h-0.939l-0.064-0.238c-5.104-19.656-22.104-34.813-42.299-37.716l-0.479-0.068l0.252-0.412
		c0.719-1.181,1.1-2.504,1.1-3.827C80.562,3.323,77.237,0,73.154,0c-4.082,0-7.402,3.322-7.402,7.404c0,1.274,0.342,2.513,1.02,3.68
		l0.24,0.418l-0.479,0.059c-20.746,2.501-38.203,17.72-43.439,37.868l-0.063,0.237h-0.943c-1.01,0-1.828,0.819-1.828,1.827
		s0.818,1.829,1.828,1.829h100.903c1.012,0,1.83-0.82,1.83-1.828S124.003,49.666,122.991,49.666z M73.154,3.656
		c2.065,0,3.747,1.683,3.747,3.748c0,2.067-1.682,3.749-3.747,3.749s-3.748-1.682-3.748-3.749
		C69.406,5.339,71.089,3.656,73.154,3.656z M26.807,49.666l0.115-0.405c5.795-20.283,24.555-34.449,45.622-34.449
		c21.064,0,39.822,14.166,45.613,34.449l0.117,0.405H26.807z"/>
	<path fill="#B4CAB1" d="M39.168,42.877c-0.422,0.916-0.021,2.006,0.893,2.43c0.898,0.407,2.018-0.01,2.43-0.895
		c4.472-9.676,13.835-16.331,24.433-17.366c1.002-0.099,1.738-0.995,1.641-1.997c-0.092-0.926-0.891-1.648-1.822-1.648
		c-0.059,0-0.117,0.002-0.174,0.008C54.682,24.569,44.184,32.03,39.168,42.877z"/>
	<path fill="#B4CAB1" d="M24.004,96.687l56.104,4.545c0.432,0.063,0.844,0.094,1.254,0.094c1.447,0,2.855-0.36,4.068-1.045
		l44.408-22.438c3.977-2.256,5.441-7.213,3.32-11.277c-1.051-2.005-2.818-3.479-4.975-4.151c-2.107-0.672-4.445-0.474-6.322,0.522
		L98.657,73.103l-0.092-0.363c-0.85-3.33-3.551-5.638-6.881-5.878l-9.924-0.697c-1.98-0.157-3.941-0.646-5.684-1.415l-10.214-5.181
		c-4.031-1.772-8.561-2.549-12.879-2.193c-4.727,0.391-13.828,1.828-21.666,7.074c-2.045,1.369-4.227,2.572-6.863,3.78l-0.451,0.208
		v-0.615c0-1.01-0.82-1.831-1.828-1.831H1.828C0.82,65.991,0,66.813,0,67.823v32.201c0,1.009,0.82,1.83,1.828,1.83h20.348
		c1.008,0,1.828-0.821,1.828-1.83V96.687z M24.004,72.427l0.199-0.081c3.23-1.319,6.311-2.954,9.15-4.86
		c7.139-4.779,15.555-6.104,19.936-6.469c3.721-0.301,7.596,0.354,11.006,1.854l10.215,5.176c2.203,0.979,4.557,1.574,6.977,1.765
		l9.939,0.702c2.156,0.152,3.811,1.894,3.85,4.049c0.023,1.103-0.389,2.151-1.158,2.95s-1.799,1.249-2.9,1.268l-21.297,0.383
		c-1.008,0.021-1.813,0.857-1.795,1.861c0.019,0.992,0.838,1.801,1.828,1.801l21.33-0.384c3.232-0.064,6.045-2.085,7.162-5.148
		l0.047-0.128l24.955-10.934c1.107-0.583,2.457-0.711,3.652-0.324c1.225,0.381,2.227,1.218,2.82,2.355
		c1.186,2.268,0.375,5.116-1.811,6.352L83.7,97.053c-0.691,0.4-1.488,0.607-2.355,0.607c-0.264,0-0.539-0.02-0.816-0.059
		l-56.523-4.58L24.004,72.427L24.004,72.427z M20.338,95.145l0.01,0.079v2.97H3.656v-28.54h16.691L20.339,94.3
		c-0.012,0.054-0.029,0.105-0.049,0.156c-0.012,0.037-0.025,0.072-0.027,0.093C20.249,94.757,20.29,94.957,20.338,95.145z"/>
	<path fill="#B4CAB1" d="M11.596,81.267l0.025-0.315l2.244-0.041c0.805-0.015,1.447-0.681,1.434-1.484l-0.098-5.393
		c-0.016-0.791-0.67-1.434-1.459-1.434l-2.271,0.042c-0.391,0.006-0.754,0.166-1.025,0.445c-0.27,0.279-0.414,0.649-0.408,1.039
		l0.098,5.392c0.016,0.79,0.67,1.434,1.461,1.434L11.596,81.267L11.596,81.267z"/>
</g>
</svg>
