<?xml version="1.0" encoding="utf-8"?>
<!-- Generator: Adobe Illustrator 16.0.0, SVG Export Plug-In . SVG Version: 6.00 Build 0)  -->
<!DOCTYPE svg PUBLIC "-//W3C//DTD SVG 1.1//EN" "http://www.w3.org/Graphics/SVG/1.1/DTD/svg11.dtd">
<svg version="1.1" id="Layer_1" xmlns="http://www.w3.org/2000/svg" xmlns:xlink="http://www.w3.org/1999/xlink" x="0px" y="0px"
	 width="124.594px" height="117.018px" viewBox="0 0 124.594 117.018" enable-background="new 0 0 124.594 117.018"
	 xml:space="preserve">
<path fill="#B4CAB1" d="M109.438,66.233V47.147C109.438,21.151,88.293,0,62.294,0C36.299,0,15.15,21.15,15.15,47.147v19.086
	C6.273,69.889-0.001,78.626-0.001,88.809c0,12.895,10.054,23.459,22.727,24.334v2.184c0,0.934,0.757,1.689,1.69,1.689h7.577
	c0.936,0,1.691-0.758,1.691-1.689v-6.047c4.304-0.799,7.574-4.574,7.574-9.105l-0.002-22.729c0-4.533-3.271-8.307-7.574-9.105
	v-6.045c0-0.936-0.756-1.689-1.69-1.689h-7.577c-0.933,0-1.69,0.756-1.69,1.689v2.186c-1.437,0.098-2.835,0.32-4.192,0.658V47.143
	c0-20.046,23.941-36.187,43.763-36.187c19.825,0,43.766,16.141,43.766,36.187v17.997c-1.355-0.336-2.759-0.563-4.195-0.66v-2.184
	c0-0.936-0.756-1.691-1.689-1.691h-7.574c-0.934,0-1.69,0.756-1.69,1.691v6.045c-4.302,0.799-7.574,4.574-7.574,9.105v22.727
	c0,4.531,3.272,8.307,7.574,9.105v6.047c0,0.934,0.758,1.689,1.69,1.689h7.574c0.934,0,1.689-0.758,1.689-1.689v-2.184
	c12.676-0.875,22.729-11.438,22.729-24.334c-0.002-10.182-6.273-18.92-15.154-22.578v0.004H109.438z M37.875,77.446v22.729
	c0,2.652-1.776,4.877-4.192,5.607V71.841C36.098,72.571,37.875,74.794,37.875,77.446L37.875,77.446z M26.104,63.987h4.195v49.648
	h-4.195V63.987z M22.723,67.862v41.9c-10.809-0.865-19.345-9.922-19.345-20.953c0-11.029,8.536-20.084,19.345-20.949V67.862z
	 M62.294,7.577c-13.136,0-27.545,6.279-36.937,16.141C33.131,11.506,46.776,3.381,62.294,3.381c15.52,0,29.165,8.125,36.939,20.336
	C89.843,13.857,75.429,7.577,62.294,7.577L62.294,7.577z M86.712,100.175V77.446c0-2.654,1.777-4.875,4.191-5.607v33.943
	C88.489,105.052,86.712,102.827,86.712,100.175L86.712,100.175z M98.481,113.637h-4.192v-49.65h4.192V113.637z M101.86,109.762
	v-41.9c10.813,0.863,19.35,9.922,19.35,20.949C121.21,99.841,112.673,108.897,101.86,109.762z"/>
</svg>
