<?xml version="1.0" encoding="utf-8"?>
<!-- Generator: Adobe Illustrator 16.0.0, SVG Export Plug-In . SVG Version: 6.00 Build 0)  -->
<!DOCTYPE svg PUBLIC "-//W3C//DTD SVG 1.1//EN" "http://www.w3.org/Graphics/SVG/1.1/DTD/svg11.dtd">
<svg version="1.1" id="Layer_1" xmlns="http://www.w3.org/2000/svg" xmlns:xlink="http://www.w3.org/1999/xlink" x="0px" y="0px"
	 width="31.008px" height="31.008px" viewBox="0 0 31.008 31.008" enable-background="new 0 0 31.008 31.008" xml:space="preserve">
<g>
	<g>
		<path fill="#142633" d="M15.502,31.008c-4.141,0-8.035-1.612-10.962-4.541C1.612,23.537,0,19.646,0,15.504
			c0-4.14,1.612-8.033,4.54-10.963C7.468,1.613,11.361,0,15.502,0c2.715,0,5.396,0.718,7.754,2.076
			c2.354,1.361,4.316,3.323,5.676,5.676c1.357,2.354,2.076,5.035,2.076,7.752c0,4.142-1.612,8.034-4.539,10.963
			C23.539,29.396,19.646,31.008,15.502,31.008z M15.502,2c-3.555,0-7.035,1.441-9.548,3.956C3.404,8.507,2,11.898,2,15.504
			c0,3.556,1.441,7.035,3.954,9.549c2.55,2.552,5.941,3.955,9.548,3.955c3.609,0,7.002-1.403,9.553-3.955
			c2.55-2.551,3.953-5.94,3.953-9.549c0-2.367-0.625-4.702-1.809-6.752c-1.184-2.049-2.893-3.759-4.943-4.944
			C20.203,2.626,17.867,2,15.502,2z"/>
	</g>
	<g>
		<rect x="14.576" y="6.973" fill="#142633" width="1.854" height="17.063"/>
		<rect x="6.972" y="14.577" fill="#142633" width="17.062" height="1.854"/>
	</g>
</g>
</svg>
