<?xml version="1.0" encoding="utf-8"?>
<!-- Generator: Adobe Illustrator 16.0.0, SVG Export Plug-In . SVG Version: 6.00 Build 0)  -->
<!DOCTYPE svg PUBLIC "-//W3C//DTD SVG 1.1//EN" "http://www.w3.org/Graphics/SVG/1.1/DTD/svg11.dtd">
<svg version="1.1" id="Layer_1" xmlns="http://www.w3.org/2000/svg" xmlns:xlink="http://www.w3.org/1999/xlink" x="0px" y="0px"
	 width="28.339px" height="28.273px" viewBox="0 0 28.339 28.273" enable-background="new 0 0 28.339 28.273" xml:space="preserve">
<g>
	<path fill="#142633" d="M23.573,2.934l-6.438,6.438l1.831,1.797l6.406-6.404l2.967,2.934V0.032L20.608,0L23.573,2.934z"/>
	<path fill="#142633" d="M7.731,0L0.033,0.032L0,7.698l2.966-2.966l6.44,6.437l1.826-1.797L4.799,2.934L7.731,0z"/>
	<path fill="#142633" d="M9.407,17.072l-6.44,6.438L0,20.574l0.032,7.668H7.73L4.798,25.34l6.435-6.438L9.407,17.072z"/>
	<path fill="#142633" d="M18.967,17.072l-1.832,1.829l6.438,6.438l-2.966,2.934h7.73v-7.699l-2.965,2.936L18.967,17.072z"/>
</g>
</svg>
