<?xml version="1.0" encoding="utf-8"?>
<!-- Generator: Adobe Illustrator 16.0.0, SVG Export Plug-In . SVG Version: 6.00 Build 0)  -->
<!DOCTYPE svg PUBLIC "-//W3C//DTD SVG 1.1//EN" "http://www.w3.org/Graphics/SVG/1.1/DTD/svg11.dtd">
<svg version="1.1" id="Layer_1" xmlns="http://www.w3.org/2000/svg" xmlns:xlink="http://www.w3.org/1999/xlink" x="0px" y="0px"
	 width="34.41px" height="25.449px" viewBox="0 0 34.41 25.449" enable-background="new 0 0 34.41 25.449" xml:space="preserve">
<g>
	<path fill="#142633" d="M32.322,13.231H19.089c-0.117-4.287-3.643-7.737-7.959-7.737s-7.842,3.45-7.959,7.737H2.554
		c-1.149,0-2.086,0.938-2.086,2.088v5.953c0,1.151,0.937,2.088,2.086,2.088h1.304v1.615c0,0.262,0.209,0.474,0.473,0.474h2.826
		c0.262,0,0.477-0.212,0.477-0.474V23.36h19.613v1.615c0,0.262,0.211,0.474,0.473,0.474h2.828c0.262,0,0.475-0.212,0.475-0.474
		V23.36h1.301c1.15,0,2.086-0.936,2.086-2.088l0.002-5.953C34.41,14.167,33.474,13.231,32.322,13.231L32.322,13.231z M3.5,21.214
		c-0.506,0-0.918-0.411-0.918-0.92c0-0.506,0.412-0.92,0.918-0.92c0.508,0,0.922,0.412,0.922,0.92
		C4.422,20.803,4.007,21.214,3.5,21.214z M11.13,19.637c-3.41,0-6.186-2.773-6.186-6.185c0-3.409,2.774-6.184,6.186-6.184
		s6.184,2.773,6.184,6.184C17.313,16.864,14.541,19.637,11.13,19.637z M22.642,20.005h-1.334v-3.417h1.334V20.005z M26.634,20.005
		H25.3v-3.417h1.334V20.005z M30.625,20.005h-1.332v-3.417h1.332V20.005z"/>
	<path fill="#142633" d="M11.13,8.542c-2.707,0-4.912,2.204-4.912,4.911c0,2.709,2.205,4.911,4.912,4.911
		c2.705,0,4.912-2.202,4.912-4.911C16.043,10.747,13.839,8.542,11.13,8.542z M11.13,10.226v1.333c-1.047,0-1.895,0.85-1.895,1.895
		H7.9C7.9,11.674,9.351,10.226,11.13,10.226z"/>
	<path fill="#142633" d="M10.462,0h1.334v2.758h-1.334V0z"/>
	<path fill="#142633" d="M15.177,3.762l1.744-2.142l1.033,0.841l-1.74,2.143L15.177,3.762z"/>
	<path fill="#142633" d="M19.193,7.184l2.498-1.174l0.565,1.205L19.761,8.39L19.193,7.184z"/>
	<path fill="#142633" d="M0,7.213l0.566-1.204l2.497,1.174L2.496,8.389L0,7.213z"/>
	<path fill="#142633" d="M4.306,2.463l1.033-0.841l1.74,2.141L6.046,4.604L4.306,2.463z"/>
</g>
</svg>
