<?xml version="1.0" encoding="utf-8"?>
<!-- Generator: Adobe Illustrator 16.0.0, SVG Export Plug-In . SVG Version: 6.00 Build 0)  -->
<!DOCTYPE svg PUBLIC "-//W3C//DTD SVG 1.1//EN" "http://www.w3.org/Graphics/SVG/1.1/DTD/svg11.dtd">
<svg version="1.1" id="Layer_1" xmlns="http://www.w3.org/2000/svg" xmlns:xlink="http://www.w3.org/1999/xlink" x="0px" y="0px"
	 width="35.489px" height="24.96px" viewBox="0 0 35.489 24.96" enable-background="new 0 0 35.489 24.96" xml:space="preserve">
<g>
	<path fill="#142633" d="M34.446,0H1.065C0.79,0,0.523,0.109,0.328,0.306C0.132,0.501,0.021,0.767,0.024,1.044v14.72h35.465V1.044
		c0.002-0.277-0.106-0.543-0.305-0.738C34.989,0.109,34.725,0,34.446,0L34.446,0z M17.756,12.48c-0.363,0-0.658-0.293-0.658-0.656
		s0.295-0.656,0.658-0.656c0.364,0,0.656,0.293,0.656,0.656S18.121,12.48,17.756,12.48z M20.082,10.43
		c-0.26,0.257-0.677,0.257-0.935,0c-0.367-0.369-0.868-0.576-1.391-0.576c-0.523,0-1.023,0.207-1.393,0.576
		c-0.261,0.248-0.668,0.242-0.924-0.012c-0.251-0.252-0.256-0.661-0.011-0.922c0.618-0.615,1.454-0.96,2.327-0.96
		c0.87,0,1.705,0.346,2.325,0.96C20.338,9.756,20.338,10.173,20.082,10.43L20.082,10.43z M21.939,8.571
		c-0.258,0.255-0.674,0.255-0.93,0c-0.865-0.858-2.035-1.34-3.253-1.34c-1.221,0-2.389,0.481-3.253,1.341
		c-0.26,0.247-0.667,0.242-0.919-0.012c-0.255-0.252-0.261-0.662-0.013-0.921c1.112-1.105,2.615-1.724,4.185-1.724
		c1.565,0,3.068,0.619,4.183,1.724C22.196,7.897,22.196,8.313,21.939,8.571L21.939,8.571z M23.8,6.713
		c-0.258,0.255-0.676,0.255-0.937,0C21.509,5.359,19.671,4.6,17.756,4.6C15.84,4.6,14,5.359,12.644,6.713
		c-0.259,0.246-0.668,0.24-0.919-0.013c-0.256-0.252-0.26-0.661-0.013-0.921c1.604-1.597,3.777-2.493,6.044-2.493
		c2.265,0,4.438,0.896,6.044,2.493C24.056,6.038,24.056,6.454,23.8,6.713L23.8,6.713z M21.695,23.647h-7.883
		c-0.404,0-0.801,0.125-1.134,0.363c-0.333,0.232-0.585,0.565-0.722,0.95h11.599c-0.136-0.385-0.389-0.718-0.722-0.95
		C22.501,23.773,22.103,23.647,21.695,23.647L21.695,23.647z M15.786,19.704v2.629h3.941v-2.629H15.786z M0.021,17.078
		c-0.063,0.315,0.02,0.646,0.218,0.898c0.201,0.251,0.503,0.404,0.826,0.414h33.379c0.279,0,0.545-0.109,0.74-0.306
		c0.197-0.194,0.305-0.463,0.305-0.739v-0.268H0.021z"/>
</g>
</svg>
