<?xml version="1.0" encoding="utf-8"?>
<!-- Generator: Adobe Illustrator 16.0.0, SVG Export Plug-In . SVG Version: 6.00 Build 0)  -->
<!DOCTYPE svg PUBLIC "-//W3C//DTD SVG 1.1//EN" "http://www.w3.org/Graphics/SVG/1.1/DTD/svg11.dtd">
<svg version="1.1" id="Layer_1" xmlns="http://www.w3.org/2000/svg" xmlns:xlink="http://www.w3.org/1999/xlink" x="0px" y="0px"
	 width="28.619px" height="28.618px" viewBox="0 0 28.619 28.618" enable-background="new 0 0 28.619 28.618" xml:space="preserve">
<g>
	<path fill="#FFFFFF" d="M14.311,28.524c-7.839,0-14.217-6.377-14.217-14.215c0-7.839,6.378-14.216,14.217-14.216
		c7.838,0,14.215,6.377,14.215,14.216C28.525,22.147,22.148,28.524,14.311,28.524z M19.104,8.542c-0.581,0-1.052,0.471-1.052,1.052
		c0,0.58,0.471,1.052,1.052,1.052c0.58,0,1.052-0.472,1.052-1.052C20.155,9.013,19.684,8.542,19.104,8.542z M14.426,9.891
		c-2.436,0-4.418,1.982-4.418,4.419s1.982,4.418,4.418,4.418c2.438,0,4.42-1.981,4.42-4.418S16.863,9.891,14.426,9.891z
		 M14.426,17.14c-1.56,0-2.83-1.27-2.83-2.83s1.271-2.831,2.83-2.831c1.562,0,2.832,1.271,2.832,2.831S15.987,17.14,14.426,17.14z
		 M23.343,10.637c0-2.977-2.413-5.39-5.39-5.39H10.84c-2.977,0-5.391,2.413-5.391,5.39v7.114c0,2.977,2.414,5.39,5.391,5.39h7.113
		c2.977,0,5.39-2.413,5.39-5.39V10.637z M21.655,17.751c0,2.044-1.657,3.701-3.702,3.701H10.84c-2.045,0-3.701-1.657-3.701-3.701
		v-7.114c0-2.044,1.656-3.702,3.701-3.702h7.113c2.045,0,3.702,1.658,3.702,3.702V17.751z"/>
</g>
</svg>
