<?xml version="1.0" encoding="utf-8"?>
<!-- Generator: Adobe Illustrator 16.0.0, SVG Export Plug-In . SVG Version: 6.00 Build 0)  -->
<!DOCTYPE svg PUBLIC "-//W3C//DTD SVG 1.1//EN" "http://www.w3.org/Graphics/SVG/1.1/DTD/svg11.dtd">
<svg version="1.1" id="Layer_1" xmlns="http://www.w3.org/2000/svg" xmlns:xlink="http://www.w3.org/1999/xlink" x="0px" y="0px"
	 width="122.832px" height="121.656px" viewBox="0 0 122.832 121.656" enable-background="new 0 0 122.832 121.656"
	 xml:space="preserve">
<g>
	<g>
		<path fill="#B4CAB1" d="M25.637,43.623c-8.828,0-16.01,7.182-16.01,16.011s7.182,16.01,16.01,16.01s16.01-7.182,16.01-16.01
			S34.465,43.623,25.637,43.623z M25.637,71.576c-6.586,0-11.943-5.357-11.943-11.944c0-6.586,5.357-11.944,11.943-11.944
			s11.945,5.358,11.945,11.944C37.582,66.219,32.223,71.576,25.637,71.576z"/>
		<path fill="#B4CAB1" d="M47.443,72.157c-0.258,0.703-0.082,1.489,0.443,2.021c0.369,0.373,0.867,0.573,1.373,0.573
			c0.215,0,0.432-0.035,0.645-0.11l19.52-6.889c4.973,2.143,10.234,3.229,15.656,3.229c20.816,0,37.752-15.921,37.752-35.49
			C122.832,15.921,105.896,0,85.08,0S47.326,15.92,47.326,35.489c0,7.017,2.18,13.777,6.316,19.617L47.443,72.157z M51.193,35.489
			c0-17.437,15.201-31.624,33.885-31.624c18.682,0,33.885,14.188,33.885,31.624c0,17.438-15.201,31.625-33.885,31.625
			c-5.158,0-10.158-1.09-14.861-3.238c-0.584-0.27-1.248-0.204-1.777,0.124l-15.967,5.634l5.156-14.174
			c0.223-0.616,0.121-1.301-0.273-1.825C53.324,48.28,51.193,42.006,51.193,35.489z"/>
		<circle fill="#B4CAB1" cx="66.912" cy="35.448" r="4.668"/>
		<circle fill="#B4CAB1" cx="85.078" cy="35.448" r="4.668"/>
		<circle fill="#B4CAB1" cx="103.246" cy="35.448" r="4.668"/>
		<path fill="#B4CAB1" d="M83.43,90.511H46.711c-2.322-6.607-8.545-11.1-15.656-11.1h-10.84c-9.15,0-16.596,7.438-16.596,16.581
			v21.599H0v4.065h118.941v-4.065h-48.35L83.43,90.511z M7.686,117.59V95.992c0-6.902,5.621-12.515,12.529-12.515h10.84
			c4.869,0,9.182,2.794,11.252,7.034h-1.525l-6.209,17.185H18.75v2.033l0,0v2.033h9.99h8.686l6.209-17.186h33.367L66.094,117.59
			H7.686z"/>
	</g>
</g>
</svg>
