<?xml version="1.0" encoding="utf-8"?>
<!-- Generator: Adobe Illustrator 16.0.0, SVG Export Plug-In . SVG Version: 6.00 Build 0)  -->
<!DOCTYPE svg PUBLIC "-//W3C//DTD SVG 1.1//EN" "http://www.w3.org/Graphics/SVG/1.1/DTD/svg11.dtd">
<svg version="1.1" id="Layer_1" xmlns="http://www.w3.org/2000/svg" xmlns:xlink="http://www.w3.org/1999/xlink" x="0px" y="0px"
	 width="46.037px" height="46.034px" viewBox="0 0 46.037 46.034" enable-background="new 0 0 46.037 46.034" xml:space="preserve">
<path fill="#B4CAB1" d="M23.019,0C10.327,0,0.002,10.325,0.002,23.018c0,12.691,10.325,23.017,23.017,23.017
	s23.017-10.325,23.017-23.017C46.035,10.325,35.71,0,23.019,0z M29.402,13.653c0,0.191-0.153,0.347-0.347,0.347h-2.768
	c-0.679,0-1.23,0.552-1.23,1.23v2.898h3.937c0.203,0,0.364,0.174,0.348,0.377l-0.348,4.085c-0.014,0.18-0.163,0.317-0.346,0.317
	h-3.591v13.559c0,0.191-0.155,0.347-0.347,0.347h-4.955c-0.191,0-0.348-0.155-0.348-0.347V23.126v-0.218h-2.477
	c-0.191,0-0.346-0.154-0.346-0.347v-4.085c0-0.191,0.154-0.348,0.346-0.348h2.477v-3.939c0-2.744,2.227-4.969,4.969-4.969h4.679
	c0.193,0,0.347,0.156,0.347,0.349V13.653z"/>
</svg>
