<?xml version="1.0" encoding="utf-8"?>
<!-- Generator: Adobe Illustrator 16.0.0, SVG Export Plug-In . SVG Version: 6.00 Build 0)  -->
<!DOCTYPE svg PUBLIC "-//W3C//DTD SVG 1.1//EN" "http://www.w3.org/Graphics/SVG/1.1/DTD/svg11.dtd">
<svg version="1.1" id="Layer_1" xmlns="http://www.w3.org/2000/svg" xmlns:xlink="http://www.w3.org/1999/xlink" x="0px" y="0px"
	 width="134.131px" height="101.854px" viewBox="0 0 134.131 101.854" enable-background="new 0 0 134.131 101.854"
	 xml:space="preserve">
<g>
	<path fill="#B4CAB1" d="M122.992,49.667h-0.941l-0.063-0.239c-5.104-19.656-22.104-34.812-42.299-37.716l-0.479-0.068l0.252-0.412
		c0.719-1.181,1.1-2.504,1.1-3.827C80.563,3.322,77.238,0,73.154,0c-4.082,0-7.402,3.322-7.402,7.404c0,1.274,0.342,2.513,1.02,3.68
		l0.24,0.418l-0.479,0.058C45.787,14.062,28.33,29.28,23.094,49.428l-0.063,0.238h-0.943c-1.01,0-1.828,0.819-1.828,1.827
		s0.818,1.829,1.828,1.829h100.904c1.01,0,1.83-0.82,1.83-1.828S124.002,49.667,122.992,49.667z M73.154,3.656
		c2.066,0,3.748,1.682,3.748,3.748c0,2.067-1.682,3.749-3.748,3.749s-3.748-1.682-3.748-3.749
		C69.406,5.338,71.088,3.656,73.154,3.656z M26.807,49.667l0.115-0.406c5.795-20.283,24.555-34.449,45.621-34.449
		s39.824,14.166,45.615,34.449l0.117,0.406H26.807z"/>
	<path fill="#B4CAB1" d="M39.168,42.877c-0.422,0.916-0.021,2.005,0.893,2.429c0.898,0.407,2.018-0.01,2.43-0.894
		c4.473-9.677,13.836-16.332,24.434-17.368c1.002-0.098,1.738-0.995,1.641-1.997c-0.092-0.925-0.891-1.648-1.822-1.648
		c-0.059,0-0.117,0.002-0.174,0.008C54.682,24.568,44.184,32.029,39.168,42.877z"/>
	<path fill="#B4CAB1" d="M24.004,96.687l56.105,4.545c0.43,0.062,0.844,0.093,1.254,0.093c1.447,0,2.854-0.361,4.068-1.044
		l44.408-22.438c3.977-2.256,5.441-7.212,3.32-11.276c-1.051-2.005-2.818-3.48-4.975-4.152c-2.107-0.672-4.445-0.474-6.322,0.522
		L98.658,73.103l-0.092-0.364c-0.85-3.33-3.551-5.638-6.881-5.878l-9.926-0.696c-1.979-0.159-3.941-0.648-5.682-1.416l-10.215-5.181
		c-4.031-1.774-8.561-2.549-12.879-2.194c-4.727,0.39-13.828,1.829-21.666,7.075c-2.045,1.37-4.227,2.572-6.863,3.78l-0.451,0.208
		v-0.615c0-1.009-0.82-1.831-1.828-1.831H1.828C0.82,65.992,0,66.813,0,67.823v32.201c0,1.009,0.82,1.831,1.828,1.831h20.348
		c1.008,0,1.828-0.821,1.828-1.831V96.687z M24.004,72.426l0.199-0.081c3.23-1.319,6.311-2.955,9.15-4.861
		c7.139-4.779,15.555-6.104,19.936-6.468c3.721-0.301,7.596,0.354,11.006,1.855l10.215,5.175c2.203,0.979,4.557,1.575,6.977,1.765
		l9.939,0.702c2.156,0.153,3.811,1.894,3.85,4.049c0.023,1.103-0.389,2.152-1.158,2.951c-0.77,0.798-1.799,1.249-2.9,1.268
		L69.92,79.163c-1.008,0.021-1.813,0.857-1.795,1.861c0.018,0.992,0.838,1.8,1.828,1.8l21.33-0.383
		c3.232-0.064,6.045-2.085,7.162-5.148l0.047-0.127l24.955-10.934c1.107-0.583,2.457-0.712,3.652-0.325
		c1.225,0.381,2.227,1.218,2.82,2.356c1.186,2.268,0.375,5.116-1.809,6.352l-44.41,22.438c-0.693,0.401-1.49,0.608-2.357,0.608
		c-0.264,0-0.539-0.02-0.816-0.058l-56.523-4.581V72.426z M20.338,95.144l0.01,0.079v2.97H3.656v-28.54h16.691L20.34,94.298
		c-0.012,0.054-0.029,0.106-0.049,0.157c-0.012,0.038-0.025,0.073-0.027,0.093C20.248,94.756,20.289,94.957,20.338,95.144z"/>
	<path fill="#B4CAB1" d="M11.596,81.267l0.025-0.316l2.244-0.041c0.805-0.015,1.447-0.68,1.434-1.486l-0.098-5.391
		c-0.016-0.791-0.67-1.434-1.459-1.434l-2.271,0.042c-0.391,0.007-0.754,0.166-1.025,0.446c-0.27,0.28-0.414,0.65-0.408,1.04
		l0.098,5.391c0.016,0.791,0.67,1.434,1.461,1.434V81.267L11.596,81.267z"/>
</g>
</svg>
