<?xml version="1.0" encoding="utf-8"?>
<!-- Generator: Adobe Illustrator 16.0.0, SVG Export Plug-In . SVG Version: 6.00 Build 0)  -->
<!DOCTYPE svg PUBLIC "-//W3C//DTD SVG 1.1//EN" "http://www.w3.org/Graphics/SVG/1.1/DTD/svg11.dtd">
<svg version="1.1" id="Layer_1" xmlns="http://www.w3.org/2000/svg" xmlns:xlink="http://www.w3.org/1999/xlink" x="0px" y="0px"
	 width="117.312px" height="125.607px" viewBox="0 0 117.312 125.607" enable-background="new 0 0 117.312 125.607"
	 xml:space="preserve">
<g>
	<path fill="#B4CAB1" d="M30.732,16.812l0.692,0.081l1.433,0.198l1.492,0.244l1.544,0.29l0.788,0.161l1.603,0.353l0.593,0.142
		l0.188,0.042l0.442,0.108l0.409,0.098l0.402,0.104l0.446,0.115l0.181,0.049l0.594,0.154l1.58,0.442l1.528,0.459l0.373,0.118l0,0
		l0.369,0.119l1.432,0.484l1.357,0.498c4.836,1.85,7.996,3.934,7.529,5.803l-0.326,1.293l0,0l-0.018,0.091
		c-0.008,0.032-0.018,0.061-0.023,0.091l-0.305,1.153l0,0l-0.309,1.146l-0.686,2.468l-0.174,0.609l0,0l-0.176,0.608l-0.721,2.405
		l-0.742,2.358l-0.379,1.161l0,0l-0.385,1.149l-0.781,2.262l-0.801,2.207l-0.816,2.155l-0.834,2.096l-0.422,1.026l-0.854,2.006
		l-0.434,0.98l0,0l-0.435,0.964l-0.881,1.878l-0.221,0.458l0,0l-0.223,0.456l-0.895,1.776c-1.563,3.026-3.165,5.73-4.78,8.058
		l-0.259,0.361l-0.236,0.332l-0.183,0.257l-0.494,0.698c-2.828,4.035-4.837,7.44-7.208,11.834c-2.979,5.518-4.748,9.879-5.93,14.261
		l-0.365,1.424l-1.23,5.221l-2.52,11.201l-0.483,2.182l0.082,0.027c5.849,1.983,9.644,4.472,9.322,7.084l-0.057,0.314
		c-0.817,3.274-7.698,3.355-15.967,1.294c-8.268-2.062-14.305-5.363-13.489-8.638c0.656-2.628,4.986-3.179,10.971-2.29l0.85,0.136
		l0.712-2.443l0.789-2.826l0.863-3.211l0.619-2.355l1.336-5.223l0.699-2.781c1.179-4.73,1.745-9.641,1.702-16.393
		c-0.03-4.932-0.201-8.845-0.786-13.652l-0.14-1.068c-0.451-3.209-0.643-6.886-0.574-10.931l0.036-1.533l0.085-2.045l0.059-1.042
		l0,0l0.067-1.056l0.167-2.148l0.209-2.197l0.248-2.242l0.289-2.285l0.078-0.578l0,0l0.083-0.58l0.349-2.345l0.191-1.187l0,0
		l0.2-1.195l0.432-2.415l0.474-2.446l0.512-2.475l0.554-2.501l0.145-0.629l0,0l0.147-0.63l0.237-0.982l0.032-0.167
		c0.01-0.044,0.023-0.088,0.036-0.133l0.309-1.252C22.498,16.697,25.952,16.29,30.732,16.812z M86.581,16.812
		c4.779-0.522,8.232-0.115,8.678,1.67l0,0l0.309,1.252c0.014,0.044,0.025,0.088,0.035,0.133l0,0l0.033,0.167l0.236,0.982l0.146,0.63
		l0,0l0.146,0.629l0.555,2.501l0.512,2.475l0.473,2.446l0.432,2.415l0.199,1.195l0,0l0.191,1.187l0.35,2.345l0.162,1.158
		l0.289,2.285l0.248,2.242l0.207,2.197l0.168,2.148l0.068,1.056l0,0l0.057,1.042l0.084,2.045l0.039,1.533
		c0.066,4.044-0.125,7.722-0.576,10.931l0,0l-0.139,1.068c-0.586,4.808-0.756,8.721-0.787,13.652
		c-0.043,6.752,0.523,11.663,1.703,16.393l0,0l0.697,2.781l1.338,5.223l0.619,2.355l0.863,3.211l0.787,2.826l0.713,2.443l0.85-0.136
		c5.984-0.889,10.316-0.338,10.971,2.29c0.816,3.274-5.221,6.576-13.488,8.638s-15.15,1.98-15.967-1.294l0,0l-0.057-0.314
		c-0.322-2.612,3.475-5.101,9.322-7.084l0,0l0.082-0.027l-0.482-2.182l-2.521-11.201l-1.232-5.221l-0.363-1.424
		c-1.18-4.382-2.951-8.743-5.928-14.261c-2.637-4.881-4.82-8.544-8.186-13.205l0.496,0.698l0,0l-0.016-0.025l-0.184-0.257
		l-0.492-0.692c-1.385-1.995-2.76-4.267-4.107-6.781l-0.674-1.277l-0.895-1.776l-0.223-0.456l0,0l-0.221-0.458l-0.879-1.878
		l-0.436-0.964l0,0l-0.432-0.98l-0.855-2.006l-0.422-1.026l-0.834-2.096l-0.818-2.155l-0.799-2.207l-0.781-2.262l-0.385-1.149l0,0
		l-0.379-1.161l-0.742-2.358l-0.721-2.405l-0.174-0.608l0,0l-0.178-0.609l-0.684-2.468l-0.307-1.146l0,0l-0.305-1.153
		c-0.01-0.03-0.018-0.059-0.023-0.091l0,0l-0.02-0.091c-0.109-0.43-0.219-0.861-0.328-1.293c-0.465-1.869,2.695-3.953,7.529-5.803
		l0,0l1.359-0.498l1.432-0.484l0.369-0.119l0,0l0.373-0.118l1.529-0.459l1.578-0.442l0.596-0.154l0.18-0.049l0.447-0.115
		l0.402-0.104l0.408-0.098l0.443-0.108l0.186-0.042l0.594-0.142l1.602-0.353l0.789-0.161l1.543-0.29l1.492-0.244l1.434-0.198
		L86.581,16.812z M21.659,74.642c0.03,1.131,0.047,2.303,0.054,3.535c0.045,7.006-0.552,12.175-1.794,17.16l-1.333,5.28l-0.921,3.56
		l-0.854,3.22l-0.786,2.876l-0.719,2.535l-0.653,2.193c-0.067,0.224-0.136,0.443-0.202,0.656c-0.234,0.751-0.998,1.208-1.771,1.058
		c-2.885-0.557-5.517-0.784-7.438-0.663c-0.291,0.02-0.555,0.045-0.787,0.075l-0.609,0.093l-0.599,0.114l0.145,0.149
		c0.439,0.451,1.19,0.981,2.193,1.53c2.178,1.191,5.295,2.345,8.729,3.202c3.434,0.856,6.729,1.301,9.211,1.271
		c0.952-0.012,1.745-0.093,2.328-0.23l0.521-0.154l-0.597-0.479c-0.187-0.142-0.407-0.303-0.67-0.476l-0.349-0.224
		c-1.632-1.007-4.05-2.039-6.849-2.9c-0.77-0.238-1.23-1.026-1.056-1.814l2.778-12.448l1.427-6.16l0.454-1.865
		c1.242-4.984,3.143-9.829,6.471-15.995c0.585-1.084,1.148-2.109,1.709-3.1l-0.195,0.083c-1.439,0.557-2.841,0.69-4.18,0.355
		C23.918,76.728,22.699,75.898,21.659,74.642z M95.651,74.642c-1.037,1.256-2.258,2.086-3.656,2.436
		c-1.34,0.334-2.74,0.202-4.18-0.355l0,0l-0.197-0.083c0.561,0.991,1.123,2.016,1.709,3.1c3.33,6.166,5.229,11.011,6.471,15.995l0,0
		l0.455,1.865l1.426,6.16l2.779,12.448c0.174,0.788-0.285,1.576-1.055,1.814c-2.799,0.862-5.217,1.893-6.85,2.9l0,0l-0.348,0.224
		c-0.264,0.173-0.486,0.334-0.67,0.476l0,0l-0.598,0.479l0.52,0.154c0.586,0.138,1.379,0.219,2.33,0.23
		c2.48,0.03,5.775-0.414,9.211-1.271s6.553-2.011,8.729-3.202c1.002-0.549,1.754-1.079,2.195-1.53l0,0l0.143-0.149l-0.598-0.114
		l-0.609-0.093c-0.232-0.03-0.496-0.056-0.787-0.075c-1.924-0.121-4.555,0.106-7.438,0.663c-0.775,0.15-1.537-0.307-1.773-1.058
		c-0.066-0.212-0.133-0.432-0.201-0.656l0,0l-0.654-2.193l-0.717-2.535l-0.787-2.876l-0.854-3.22l-0.922-3.56l-1.332-5.28
		c-1.242-4.985-1.838-10.154-1.795-17.16C95.606,76.945,95.624,75.773,95.651,74.642z M23.923,24.068l-0.039,0.175l-0.526,2.48
		l-0.485,2.451l-0.443,2.419l-0.402,2.385l-0.186,1.179l-0.34,2.327l-0.078,0.576l0,0l-0.077,0.572l-0.279,2.263l-0.24,2.215
		l-0.199,2.166l-0.16,2.112l-0.121,2.056c-0.044,0.902-0.077,1.785-0.099,2.65l-0.024,1.282l-0.005,1.869l0.034,1.8
		c0.056,1.872,0.176,3.623,0.358,5.235l0.048-0.008c0.126,0.924,0.237,1.809,0.338,2.668c0.821,4.712,2.304,7.868,4.387,8.882
		l0.374,0.156l0.31,0.093c2.438,0.608,5.496-1.491,8.746-5.647c0.146-0.218,0.302-0.442,0.46-0.667l1.108-1.563l0.038,0.03
		c0.637-0.927,1.279-1.927,1.921-2.995l0.643-1.089l0.863-1.531l0.86-1.606l0.858-1.681l0.854-1.753l0.848-1.822l0.421-0.937l0,0
		l0.42-0.952l0.831-1.954l0.207-0.498l0,0l0.204-0.503l0.815-2.045l0.802-2.104l0.395-1.072l0.779-2.188l0.383-1.112l0,0
		l0.377-1.126l0.742-2.289l0.723-2.335l0.352-1.184l0,0l0.348-1.196l0.369-1.322c-3.367,0.62-8.537,0.098-14.277-1.333
		C31.415,28.165,26.604,26.198,23.923,24.068z M93.39,24.068c-2.682,2.13-7.492,4.097-13.232,5.527
		c-5.74,1.432-10.91,1.953-14.277,1.333l0,0l0.369,1.322l0.348,1.196l0,0l0.352,1.184l0.723,2.335l0.74,2.289l0.379,1.126l0,0
		l0.383,1.112l0.779,2.188l0.395,1.072l0.801,2.104l0.814,2.045l0.207,0.503l0,0l0.205,0.498l0.832,1.954l0.42,0.952l0,0l0.42,0.937
		l0.848,1.822l0.855,1.753l0.857,1.681l0.861,1.606l0.861,1.531l0.643,1.089c0.643,1.068,1.285,2.068,1.922,2.995l0,0l0.037-0.03
		l1.109,1.563c0.158,0.225,0.314,0.449,0.459,0.667c3.25,4.156,6.307,6.255,8.746,5.647l0,0l0.311-0.093l0.375-0.156
		c2.082-1.014,3.564-4.169,4.387-8.882c0.098-0.859,0.209-1.744,0.336-2.668l0,0l0.049,0.008c0.182-1.612,0.303-3.363,0.357-5.235
		l0,0l0.033-1.8l-0.004-1.869l-0.023-1.282c-0.023-0.865-0.055-1.748-0.1-2.65l0,0l-0.121-2.056l-0.16-2.112l-0.199-2.166
		l-0.238-2.215l-0.281-2.263l-0.076-0.572l0,0l-0.078-0.576l-0.34-2.327l-0.186-1.179l-0.404-2.385l-0.441-2.419l-0.486-2.451
		l-0.525-2.48L93.39,24.068z M28.415,20.029l-0.955,0.002l-0.833,0.04l-0.699,0.072c-0.729,0.102-1.16,0.265-1.214,0.475
		l-0.004,0.021c-0.022,0.181,0.194,0.452,0.616,0.787l0.237,0.181l0.583,0.39l0.343,0.209l0,0l0.375,0.217l0.841,0.452l0.468,0.234
		l0,0l0.492,0.239l1.068,0.484l0.571,0.245l0,0l0.594,0.245l1.258,0.488l1.338,0.478l0.346,0.117l0,0l0.351,0.115l1.442,0.45
		c0.736,0.219,1.496,0.428,2.273,0.621l1.158,0.274l0,0l1.139,0.245l1.485,0.279l0.364,0.063l0,0l0.359,0.059l1.406,0.206
		l0.341,0.044l0,0l0.338,0.041l1.301,0.137l0.313,0.028l0,0l0.306,0.024l1.17,0.073l1.068,0.033l0.957-0.004l0.434-0.016l0,0
		l0.4-0.023l0.699-0.072c0.729-0.101,1.16-0.265,1.213-0.474l-0.021,0.04l0.025-0.079c0.01-0.18-0.207-0.445-0.615-0.77l-0.238-0.18
		l-0.582-0.39l-0.719-0.426l-0.842-0.453l-0.23-0.116l0,0l-0.236-0.117l-1.014-0.479l-0.27-0.122l0,0l-0.277-0.122l-1.167-0.489
		l-0.617-0.246l0,0l-0.64-0.242l-1.337-0.479l-1.409-0.461c-0.964-0.3-1.969-0.585-3.003-0.842l-0.938-0.225l-1.063-0.233l0,0
		l-1.046-0.208l-1.462-0.254l-1.404-0.207l-1.339-0.158l-0.323-0.033l0,0l-0.317-0.03l-1.218-0.094l-1.119-0.053l-0.265-0.007l0,0
		L28.415,20.029z M88.896,20.029l-0.258,0.004l0,0l-0.262,0.007l-1.121,0.053l-1.217,0.094l-0.318,0.03l0,0l-0.322,0.033
		l-1.338,0.158l-1.406,0.207l-1.463,0.254l-1.045,0.208l0,0l-1.063,0.233l-0.938,0.225c-1.035,0.257-2.039,0.542-3.002,0.842l0,0
		l-1.408,0.461l-1.34,0.479l-0.637,0.242l0,0l-0.619,0.246l-1.166,0.489l-0.275,0.122l0,0l-0.271,0.122l-1.016,0.479l-0.236,0.117
		l0,0l-0.229,0.116l-0.842,0.453l-0.717,0.426l-0.584,0.39l-0.238,0.18c-0.406,0.324-0.625,0.59-0.617,0.77l0,0l0.027,0.079
		l-0.016-0.03l0.041,0.077c0.111,0.14,0.414,0.255,0.875,0.34l0.293,0.047l0.699,0.072l0.4,0.023l0,0l0.43,0.016l0.957,0.004
		l1.07-0.033l1.17-0.073l0.307-0.024l0,0l0.313-0.028l1.301-0.137l0.336-0.041l0,0l0.344-0.044l1.404-0.206l0.359-0.059l0,0
		l0.365-0.063l1.484-0.279l1.141-0.245l0,0l1.158-0.274c0.775-0.193,1.535-0.402,2.271-0.621l0,0l1.443-0.45l0.35-0.115l0,0
		l0.346-0.117l1.338-0.478l1.258-0.488l0.596-0.245l0,0l0.568-0.245l1.068-0.484l0.494-0.239l0,0l0.467-0.234l0.842-0.452
		l0.375-0.217l0,0l0.342-0.209l0.584-0.39l0.238-0.181c0.42-0.335,0.639-0.606,0.615-0.787l0,0l-0.014-0.041l-0.035-0.066
		c-0.137-0.168-0.545-0.301-1.17-0.388l0,0l-0.699-0.072l-0.832-0.04L88.896,20.029z M65.817,15.651
		c-0.615-0.447-0.805-1.262-0.486-1.924l0.145-0.239l6.008-8.27c0.279-0.385,0.703-0.604,1.143-0.635
		c0.381-0.025,0.742,0.068,1.051,0.292c0.691,0.503,0.844,1.471,0.342,2.164l0,0l-6.008,8.269l-0.186,0.211
		c-0.266,0.252-0.605,0.398-0.957,0.423C66.487,15.969,66.126,15.875,65.817,15.651z M44.688,4.584
		c0.439,0.031,0.862,0.25,1.141,0.635l0,0l6.009,8.27l0.145,0.239c0.318,0.662,0.129,1.477-0.486,1.924
		c-0.307,0.224-0.67,0.317-1.021,0.292h-0.029c-0.352-0.025-0.693-0.171-0.957-0.423l-0.186-0.211L43.295,7.04
		c-0.504-0.692-0.35-1.661,0.341-2.164c0.309-0.224,0.67-0.317,1.021-0.292H44.688z M58.671,0c0.855,0,1.549,0.693,1.549,1.549l0,0
		v10.223l-0.025,0.278c-0.131,0.723-0.764,1.27-1.523,1.27l0,0h-0.027c-0.762,0-1.395-0.547-1.525-1.27l-0.025-0.278V1.549
		C57.093,0.693,57.786,0,58.644,0H58.671z"/>
</g>
</svg>
