<?xml version="1.0" encoding="utf-8"?>
<!-- Generator: Adobe Illustrator 16.0.0, SVG Export Plug-In . SVG Version: 6.00 Build 0)  -->
<!DOCTYPE svg PUBLIC "-//W3C//DTD SVG 1.1//EN" "http://www.w3.org/Graphics/SVG/1.1/DTD/svg11.dtd">
<svg version="1.1" id="Layer_1" xmlns="http://www.w3.org/2000/svg" xmlns:xlink="http://www.w3.org/1999/xlink" x="0px" y="0px"
	 width="28.619px" height="28.618px" viewBox="0 0 28.619 28.618" enable-background="new 0 0 28.619 28.618" xml:space="preserve">
<path fill="#FFFFFF" d="M14.309,0C6.419,0,0,6.419,0,14.31c0,7.89,6.419,14.309,14.309,14.309c7.891,0,14.311-6.419,14.311-14.309
	C28.619,6.419,22.199,0,14.309,0z M22.596,9.102c0,0.043,0.006,0.148-0.082,0.266c-0.39,0.524-0.805,0.995-1.328,1.388
	c-0.076,0.057-0.203,0.116-0.203,0.225c0,2.756-0.704,5.508-2.713,7.505c-2.559,2.541-6.396,3.232-9.803,2.292
	c-0.66-0.183-1.291-0.438-1.896-0.759c-0.199-0.109-0.396-0.223-0.591-0.35c-0.048-0.04-0.085-0.076-0.044-0.103
	c0.042-0.021,0.074-0.022,0.227,0c0.953,0.095,1.935-0.048,2.836-0.362c0.496-0.174,1.561-0.522,1.867-0.99
	c0.008-0.011,0.015-0.011,0.021-0.021c-0.123-0.029-0.248-0.029-0.371-0.051c-0.926-0.265-2.162-0.729-2.734-2.29
	c-0.037-0.091,0-0.139,0.094-0.12c0.764,0.059,1.036,0.018,1.302-0.04c-0.149-0.025-0.302-0.076-0.44-0.136
	c-1.167-0.443-2.019-1.581-2.174-2.811c-0.018-0.142-0.028-0.263-0.021-0.394c0.008-0.092,0.048-0.12,0.129-0.07
	c0.599,0.311,1.271,0.383,1.326,0.372c-0.148-0.116-0.288-0.244-0.423-0.372C6.563,11.323,6.17,9.374,6.979,8.161
	c0.066-0.099,0.109-0.099,0.189-0.008c1.85,2.107,4.129,3.092,6.877,3.5c0.072,0.012,0.08,0,0.069-0.08
	c-0.071-0.483-0.081-0.957,0.036-1.437c0.121-0.497,0.357-0.965,0.679-1.361c0.312-0.383,0.702-0.701,1.139-0.93
	c0.437-0.228,0.919-0.366,1.411-0.398c0.504-0.032,1.018,0.049,1.486,0.239c0.357,0.146,0.674,0.344,0.969,0.595
	c0.063,0.051,0.117,0.113,0.176,0.179c0.036,0.036,0.08,0.051,0.137,0.036C20.85,8.32,21.51,8.073,22.148,7.73
	c0.029-0.014,0.053-0.021,0.09-0.007c0.028,0.021,0.018,0.059,0.002,0.088c-0.113,0.373-0.316,0.718-0.561,1.021
	c-0.159,0.199-0.561,0.69-0.832,0.736c0.572-0.096,1.156-0.242,1.686-0.481c0.068-0.031,0.063-0.044,0.063,0
	C22.596,9.087,22.596,9.094,22.596,9.102z"/>
</svg>
