<?xml version="1.0" encoding="utf-8"?>
<!-- Generator: Adobe Illustrator 16.0.0, SVG Export Plug-In . SVG Version: 6.00 Build 0)  -->
<!DOCTYPE svg PUBLIC "-//W3C//DTD SVG 1.1//EN" "http://www.w3.org/Graphics/SVG/1.1/DTD/svg11.dtd">
<svg version="1.1" id="Layer_1" xmlns="http://www.w3.org/2000/svg" xmlns:xlink="http://www.w3.org/1999/xlink" x="0px" y="0px"
	 width="46.037px" height="46.034px" viewBox="0 0 46.037 46.034" enable-background="new 0 0 46.037 46.034" xml:space="preserve">
<g>
	<path fill="#B4CAB1" d="M23.021,45.884c-12.61,0-22.869-10.258-22.869-22.867C0.151,10.409,10.41,0.15,23.021,0.15
		c12.607,0,22.865,10.259,22.865,22.868C45.886,35.626,35.628,45.884,23.021,45.884z M30.73,13.74c-0.935,0-1.692,0.757-1.692,1.691
		c0,0.934,0.758,1.692,1.692,1.692c0.933,0,1.691-0.758,1.691-1.692C32.422,14.497,31.663,13.74,30.73,13.74z M23.206,15.909
		c-3.918,0-7.107,3.189-7.107,7.108c0,3.919,3.189,7.107,7.107,7.107c3.921,0,7.109-3.188,7.109-7.107
		C30.315,19.099,27.127,15.909,23.206,15.909z M23.206,27.57c-2.509,0-4.553-2.042-4.553-4.552c0-2.51,2.044-4.553,4.553-4.553
		c2.512,0,4.555,2.043,4.555,4.553C27.761,25.528,25.718,27.57,23.206,27.57z M37.55,17.109c0-4.788-3.882-8.67-8.67-8.67H17.438
		c-4.788,0-8.672,3.882-8.672,8.67v11.444c0,4.789,3.884,8.67,8.672,8.67H28.88c4.788,0,8.67-3.881,8.67-8.67V17.109z
		 M34.835,28.553c0,3.289-2.666,5.955-5.955,5.955H17.438c-3.29,0-5.954-2.666-5.954-5.955V17.109c0-3.288,2.664-5.955,5.954-5.955
		H28.88c3.289,0,5.955,2.667,5.955,5.955V28.553z"/>
</g>
</svg>
