<?xml version="1.0" encoding="utf-8"?>
<!-- Generator: Adobe Illustrator 16.0.0, SVG Export Plug-In . SVG Version: 6.00 Build 0)  -->
<!DOCTYPE svg PUBLIC "-//W3C//DTD SVG 1.1//EN" "http://www.w3.org/Graphics/SVG/1.1/DTD/svg11.dtd">
<svg version="1.1" id="Layer_1" xmlns="http://www.w3.org/2000/svg" xmlns:xlink="http://www.w3.org/1999/xlink" x="0px" y="0px"
	 width="46.037px" height="46.034px" viewBox="0 0 46.037 46.034" enable-background="new 0 0 46.037 46.034" xml:space="preserve">
<path fill="#B4CAB1" d="M23.018,0C10.326,0,0,10.325,0,23.018c0,12.691,10.326,23.017,23.018,23.017
	c12.693,0,23.02-10.325,23.02-23.017C46.037,10.325,35.711,0,23.018,0z M36.348,14.64c0,0.07,0.01,0.239-0.131,0.429
	c-0.627,0.843-1.295,1.6-2.137,2.231c-0.123,0.092-0.328,0.188-0.328,0.361c0,4.434-1.133,8.86-4.363,12.072
	c-4.115,4.088-10.289,5.2-15.77,3.687c-1.061-0.293-2.076-0.704-3.051-1.22c-0.32-0.176-0.637-0.358-0.949-0.563
	c-0.078-0.063-0.137-0.122-0.07-0.164c0.066-0.033,0.119-0.036,0.363,0c1.533,0.151,3.113-0.077,4.563-0.583
	c0.799-0.279,2.51-0.84,3.004-1.593c0.012-0.017,0.023-0.017,0.035-0.035c-0.199-0.047-0.4-0.047-0.598-0.082
	c-1.49-0.426-3.479-1.173-4.398-3.683c-0.061-0.146,0-0.223,0.15-0.194c1.229,0.096,1.666,0.029,2.094-0.064
	c-0.24-0.04-0.484-0.122-0.709-0.217c-1.877-0.714-3.246-2.545-3.496-4.522c-0.027-0.228-0.045-0.422-0.035-0.633
	c0.014-0.146,0.078-0.192,0.209-0.112c0.963,0.499,2.045,0.616,2.133,0.599c-0.238-0.188-0.463-0.393-0.68-0.599
	c-1.627-1.54-2.258-4.676-0.957-6.627c0.105-0.158,0.176-0.158,0.305-0.012c2.975,3.39,6.641,4.973,11.063,5.63
	c0.115,0.019,0.129,0,0.111-0.129c-0.115-0.778-0.131-1.54,0.057-2.311c0.195-0.8,0.576-1.552,1.092-2.19
	c0.502-0.616,1.131-1.127,1.832-1.495c0.703-0.366,1.479-0.59,2.271-0.641c0.811-0.053,1.637,0.078,2.391,0.385
	c0.574,0.235,1.084,0.553,1.559,0.957c0.1,0.081,0.188,0.182,0.281,0.287c0.059,0.059,0.129,0.082,0.221,0.059
	c1.131-0.283,2.193-0.682,3.221-1.232c0.047-0.022,0.084-0.035,0.145-0.011c0.045,0.035,0.027,0.094,0.002,0.141
	c-0.182,0.601-0.508,1.155-0.9,1.643c-0.256,0.319-0.902,1.11-1.34,1.184c0.922-0.154,1.861-0.389,2.713-0.773
	c0.109-0.051,0.1-0.071,0.1,0C36.348,14.617,36.348,14.628,36.348,14.64z"/>
</svg>
