<?xml version="1.0" encoding="utf-8"?>
<!-- Generator: Adobe Illustrator 16.0.0, SVG Export Plug-In . SVG Version: 6.00 Build 0)  -->
<!DOCTYPE svg PUBLIC "-//W3C//DTD SVG 1.1//EN" "http://www.w3.org/Graphics/SVG/1.1/DTD/svg11.dtd">
<svg version="1.1" id="Layer_1" xmlns="http://www.w3.org/2000/svg" xmlns:xlink="http://www.w3.org/1999/xlink" x="0px" y="0px"
	 width="28.619px" height="28.618px" viewBox="0 0 28.619 28.618" enable-background="new 0 0 28.619 28.618" xml:space="preserve">
<path fill="#FFFFFF" d="M14.31,0C6.42,0,0.001,6.419,0.001,14.31c0,7.89,6.419,14.309,14.309,14.309s14.309-6.419,14.309-14.309
	C28.618,6.419,22.199,0,14.31,0z M18.278,8.488c0,0.119-0.096,0.215-0.216,0.215h-1.721c-0.422,0-0.765,0.344-0.765,0.766v1.802
	h2.447c0.126,0,0.227,0.107,0.216,0.234l-0.216,2.539c-0.009,0.112-0.102,0.197-0.215,0.197h-2.232v8.429
	c0,0.119-0.097,0.216-0.216,0.216h-3.08c-0.119,0-0.216-0.097-0.216-0.216v-8.293v-0.136h-1.54c-0.119,0-0.215-0.096-0.215-0.216
	v-2.539c0-0.119,0.096-0.216,0.215-0.216h1.54V8.821c0-1.706,1.384-3.089,3.089-3.089h2.908c0.12,0,0.216,0.097,0.216,0.217V8.488z"
	/>
</svg>
