<?xml version="1.0" encoding="utf-8"?>
<!-- Generator: Adobe Illustrator 16.0.0, SVG Export Plug-In . SVG Version: 6.00 Build 0)  -->
<!DOCTYPE svg PUBLIC "-//W3C//DTD SVG 1.1//EN" "http://www.w3.org/Graphics/SVG/1.1/DTD/svg11.dtd">
<svg version="1.1" id="Layer_1" xmlns="http://www.w3.org/2000/svg" xmlns:xlink="http://www.w3.org/1999/xlink" x="0px" y="0px"
	 width="35.396px" height="36.085px" viewBox="0 0 35.396 36.085" enable-background="new 0 0 35.396 36.085" xml:space="preserve">
<g>
	<path fill="#142633" d="M17.15,29.27c-5.824-0.434-10.416-5.295-10.416-11.229c0-5.934,4.592-10.796,10.415-11.228V0.846
		C17.149,0.378,17.527,0,17.994,0c0.467,0,0.847,0.379,0.847,0.846V15.56l4.521-5.875l-0.848-4.981
		c-0.075-0.459,0.234-0.894,0.694-0.971c0.46-0.076,0.894,0.232,0.971,0.693l0.586,3.438l2.658-3.456
		c0.284-0.368,0.814-0.437,1.184-0.152c0.369,0.285,0.438,0.815,0.151,1.185L26.1,8.895l3.475-0.315
		c0.465-0.042,0.873,0.3,0.916,0.763c0.042,0.465-0.301,0.874-0.765,0.916l-5.027,0.457l-4.988,6.485h8.187l3.428-3.703
		c0.313-0.341,0.847-0.362,1.188-0.047c0.342,0.314,0.36,0.848,0.047,1.189l-2.367,2.561h4.359c0.467,0,0.846,0.379,0.846,0.845
		c0,0.468-0.379,0.847-0.846,0.847h-4.359l2.367,2.56c0.315,0.342,0.295,0.875-0.047,1.189c-0.342,0.313-0.874,0.294-1.188-0.046
		l-3.428-3.703H19.71l4.988,6.484l5.027,0.457c0.464,0.042,0.807,0.452,0.765,0.915c-0.043,0.462-0.45,0.806-0.916,0.762
		L26.1,27.197l2.659,3.455c0.284,0.367,0.217,0.897-0.151,1.183c-0.368,0.284-0.898,0.216-1.184-0.15l-2.657-3.462l-0.586,3.437
		c-0.077,0.459-0.511,0.771-0.971,0.694s-0.771-0.512-0.694-0.971l0.848-4.981l-4.521-5.875V35.24c0,0.467-0.38,0.845-0.847,0.845
		c-0.468,0-0.846-0.378-0.846-0.845V29.27z M8.69,3.611c-0.232-0.403-0.096-0.92,0.308-1.153c0.403-0.232,0.92-0.097,1.151,0.309
		l1.513,2.616c0.232,0.403,0.096,0.919-0.309,1.152s-0.92,0.096-1.153-0.308L8.69,3.611z M2.72,10.196
		c-0.404-0.233-0.542-0.75-0.308-1.154c0.232-0.402,0.75-0.54,1.151-0.307l2.617,1.511c0.404,0.233,0.54,0.75,0.308,1.153
		c-0.232,0.402-0.749,0.541-1.153,0.308L2.72,10.196z M10.149,33.317C9.916,33.72,9.4,33.858,8.996,33.625
		c-0.402-0.232-0.541-0.75-0.31-1.152l1.512-2.617c0.233-0.404,0.749-0.541,1.152-0.309c0.404,0.233,0.542,0.75,0.31,1.153
		L10.149,33.317z M3.565,27.346c-0.401,0.232-0.919,0.097-1.151-0.309c-0.234-0.403-0.098-0.919,0.308-1.152l2.615-1.511
		c0.404-0.232,0.92-0.096,1.153,0.308c0.232,0.402,0.098,0.92-0.308,1.152L3.565,27.346z M0.844,18.885
		c-0.467,0-0.845-0.378-0.845-0.845c0-0.466,0.378-0.846,0.845-0.846h3.024c0.466,0,0.844,0.379,0.844,0.846
		s-0.377,0.845-0.844,0.845H0.844z"/>
</g>
</svg>
