<?xml version="1.0" encoding="utf-8"?>
<!-- Generator: Adobe Illustrator 16.0.0, SVG Export Plug-In . SVG Version: 6.00 Build 0)  -->
<!DOCTYPE svg PUBLIC "-//W3C//DTD SVG 1.1//EN" "http://www.w3.org/Graphics/SVG/1.1/DTD/svg11.dtd">
<svg version="1.1" id="Layer_1" xmlns="http://www.w3.org/2000/svg" xmlns:xlink="http://www.w3.org/1999/xlink" x="0px" y="0px"
	 width="36.425px" height="35.775px" viewBox="0 0 36.425 35.775" enable-background="new 0 0 36.425 35.775" xml:space="preserve">
<g>
	<path fill="#142633" d="M34.38,9.985l-1.137-1.933c-0.057-0.057-0.057-0.171,0-0.228L34.21,5.78
		c0.113-0.171-0.059-0.398-0.284-0.342l-2.159,0.455c-0.058,0-0.171,0-0.229-0.057L30.402,4.87V4.756l-0.738-1.932
		c1.193-0.625,2.159-1.25,2.897-1.763c0.284-0.17,0.341-0.512,0.171-0.796c-0.171-0.283-0.512-0.341-0.796-0.17
		c-8.808,6.08-20.628,7.33-31.253,6.023c-0.342-0.058-0.569,0.17-0.626,0.512C0,6.915,0.228,7.199,0.568,7.256
		c2.33,0.284,4.944,0.455,7.445,0.455V9.53l-0.739,1.307c-0.056,0.057-0.113,0.114-0.17,0.171l-2.217,0.34
		c-0.228,0.059-0.284,0.285-0.17,0.455l1.591,1.591c0.057,0.058,0.113,0.17,0.057,0.228l-0.396,2.217
		c-0.058,0.228,0.17,0.397,0.396,0.284l1.989-1.023c0.058-0.057,0.171-0.057,0.229,0l1.987,1.023
		c0.171,0.114,0.398-0.057,0.398-0.284L10.57,13.62c0-0.113,0-0.17,0.058-0.228l1.592-1.591c0.17-0.17,0.057-0.396-0.171-0.455
		l-2.104-0.34c-0.057,0-0.171-0.057-0.171-0.171L9.15,9.53V7.711c2.158,0,4.262-0.17,6.08-0.398l1.705,10.399
		c0.057,0.455,0.681,0.625,1.021,0.284l2.673-3.409c0.17-0.228,0.512-0.285,0.737-0.114l3.58,2.33
		c0.397,0.284,0.966-0.057,0.854-0.567L23.981,5.268c1.591-0.567,3.068-1.192,4.66-1.933l0.624,1.818c0,0,0,0.057,0.057,0.057
		l-0.17,1.478c0,0.058-0.057,0.172-0.113,0.229l-1.933,1.08c-0.171,0.114-0.171,0.397,0,0.455l2.046,0.909
		c0.058,0.057,0.113,0.113,0.17,0.171l0.455,2.216c0.058,0.228,0.284,0.285,0.455,0.114l1.478-1.647
		c0.058-0.057,0.172-0.114,0.228-0.057l2.217,0.284C34.323,10.44,34.493,10.212,34.38,9.985L34.38,9.985z"/>
	<path fill="#142633" d="M35.743,23.793c-12.159,1.477-26.194-0.398-34.775-9.035c-0.229-0.227-0.568-0.227-0.795,0
		c-0.229,0.228-0.229,0.568,0,0.795c0.112,0.114,2.557,2.559,6.592,4.887l-0.796,2.103l-1.08,1.023
		c-0.058,0.057-0.17,0.057-0.228,0.057l-2.159-0.455c-0.229-0.057-0.397,0.171-0.284,0.341l0.91,2.045c0,0.058,0,0.171-0.058,0.229
		l-1.137,1.932c-0.057,0.17,0.057,0.398,0.283,0.341l2.217-0.284c0.057,0,0.17,0,0.228,0.058l1.478,1.646
		c0.114,0.171,0.396,0.114,0.455-0.112l0.396-2.218c0-0.057,0.058-0.17,0.171-0.17l2.047-0.909c0.17-0.058,0.228-0.342,0-0.455
		l-1.934-1.079c-0.056-0.057-0.113-0.113-0.113-0.228l-0.113-1.421l0.796-2.045c1.591,0.854,3.068,1.478,4.603,1.989l-1.818,10.967
		c-0.057,0.455,0.455,0.852,0.853,0.568l3.58-2.33c0.227-0.17,0.568-0.114,0.738,0.113l2.672,3.409
		c0.283,0.398,0.908,0.229,1.021-0.284l1.706-10.398c1.988,0.228,4.092,0.341,6.08,0.397v2.047l-0.625,1.307
		c-0.057,0.057-0.113,0.113-0.17,0.113l-2.217,0.341c-0.228,0.057-0.284,0.284-0.17,0.455l1.591,1.534
		c0.057,0.057,0.114,0.17,0.057,0.227l-0.397,2.217c-0.058,0.229,0.17,0.398,0.396,0.284l1.989-1.021
		c0.057-0.058,0.17-0.058,0.228,0l1.989,1.021c0.17,0.114,0.396-0.057,0.396-0.284l-0.396-2.216c0-0.057,0-0.17,0.057-0.227
		l1.591-1.534c0.171-0.171,0.057-0.398-0.17-0.455l-2.16-0.229c-0.057,0-0.17-0.057-0.17-0.112l-0.625-1.308v-2.046
		c2.5,0,5.057-0.17,7.442-0.455c0.285-0.057,0.513-0.341,0.513-0.625C36.313,23.963,36.03,23.736,35.743,23.793L35.743,23.793z"/>
</g>
</svg>
