<?xml version="1.0" encoding="utf-8"?>
<!-- Generator: Adobe Illustrator 16.0.0, SVG Export Plug-In . SVG Version: 6.00 Build 0)  -->
<!DOCTYPE svg PUBLIC "-//W3C//DTD SVG 1.1//EN" "http://www.w3.org/Graphics/SVG/1.1/DTD/svg11.dtd">
<svg version="1.1" id="Layer_1" xmlns="http://www.w3.org/2000/svg" xmlns:xlink="http://www.w3.org/1999/xlink" x="0px" y="0px"
	 width="23.717px" height="33.625px" viewBox="0 0 23.717 33.625" enable-background="new 0 0 23.717 33.625" xml:space="preserve">
<g>
	<path fill="#142633" d="M12.742,3.979c-3.742,0-6.776,3.034-6.776,6.776c0,2.162,1.014,4.086,2.589,5.327
		c1.152,0.906,2.606,1.449,4.188,1.449s3.034-0.543,4.187-1.449c1.576-1.241,2.589-3.165,2.589-5.327
		C19.518,7.013,16.485,3.979,12.742,3.979L12.742,3.979z"/>
	<path fill="#142633" d="M18.667,20.981c-0.46,0.813-1.385,1.341-2.423,1.341c-1.506,0-2.731-1.116-2.731-2.486
		c0-0.02,0.002-0.037,0.003-0.056c-0.24,0.018-0.483,0.026-0.73,0.026c-2.384,0-4.575-0.768-6.293-2.044
		c-2.15,2.328-3.521,4.282-3.521,9.28c0,1.884,0.196,3.457,0.558,5.14c2.82,0.926,5.955,1.442,9.257,1.442s6.438-0.517,9.26-1.442
		c0.356-1.682,0.555-3.255,0.555-5.14c0-3.727-0.763-4.967-2.04-7.229C19.871,20.315,19.21,20.701,18.667,20.981L18.667,20.981z"/>
	<path fill="#142633" d="M3.813,12.074V9.375c0-0.078-0.004-0.154-0.012-0.23c0.128-1.749,0.56-3.14,2.079-4.67
		c1.85-1.86,4.314-2.926,6.764-2.926c5.25,0,9.523,4.13,9.523,9.207c0,4.654-3.392,7.025-5.021,7.898
		c-0.248-0.197-0.562-0.316-0.9-0.316c-0.713,0-1.305,0.519-1.42,1.197c-0.012,0.08-0.021,0.161-0.021,0.243
		c0,0.797,0.646,1.441,1.441,1.441c0.676,0,1.239-0.464,1.396-1.091c0.577-0.302,1.403-0.794,2.263-1.505
		c1.834-1.522,3.813-4.047,3.813-7.868C23.717,4.825,18.749,0,12.646,0C9.787,0,6.921,1.233,4.784,3.384
		c-1.317,1.324-1.752,2.398-2.22,3.994C2.358,7.295,2.138,7.246,1.907,7.246C0.854,7.246,0,8.199,0,9.375v2.698
		c0,1.177,0.854,2.129,1.907,2.129C2.959,14.203,3.813,13.25,3.813,12.074L3.813,12.074z"/>
</g>
</svg>
