<?xml version="1.0" encoding="utf-8"?>
<!-- Generator: Adobe Illustrator 16.0.0, SVG Export Plug-In . SVG Version: 6.00 Build 0)  -->
<!DOCTYPE svg PUBLIC "-//W3C//DTD SVG 1.1//EN" "http://www.w3.org/Graphics/SVG/1.1/DTD/svg11.dtd">
<svg version="1.1" id="Layer_1" xmlns="http://www.w3.org/2000/svg" xmlns:xlink="http://www.w3.org/1999/xlink" x="0px" y="0px"
	 width="29.008px" height="29.008px" viewBox="0 0 29.008 29.008" enable-background="new 0 0 29.008 29.008" xml:space="preserve">
<path fill="#142633" d="M14.503,0C10.657,0,6.967,1.528,4.247,4.248C1.528,6.969,0,10.658,0,14.504
	c0,3.848,1.529,7.536,4.247,10.256c2.72,2.721,6.41,4.248,10.256,4.248c3.849,0,7.538-1.527,10.259-4.248
	c2.719-2.72,4.246-6.408,4.246-10.256c0-2.546-0.67-5.047-1.941-7.252c-1.273-2.205-3.104-4.036-5.31-5.31
	C19.551,0.672,17.05,0,14.503,0L14.503,0z M22.822,16.816c0,0.121-0.049,0.234-0.133,0.32c-0.086,0.085-0.203,0.133-0.32,0.133h-5.1
	v5.104c0,0.118-0.048,0.235-0.133,0.319c-0.086,0.086-0.199,0.133-0.32,0.133h-4.613c-0.252,0-0.455-0.203-0.455-0.453v-5.107H6.642
	c-0.253,0-0.456-0.205-0.456-0.455v-4.608c0-0.251,0.203-0.453,0.456-0.453h5.106V6.641c0-0.25,0.203-0.453,0.455-0.453h4.613
	c0.121,0,0.233,0.049,0.319,0.133c0.085,0.085,0.134,0.201,0.134,0.32v5.109h5.1c0.117,0,0.234,0.047,0.32,0.132
	c0.084,0.085,0.133,0.2,0.133,0.321V16.816L22.822,16.816z"/>
</svg>
