<?xml version="1.0" encoding="utf-8"?>
<!-- Generator: Adobe Illustrator 16.0.0, SVG Export Plug-In . SVG Version: 6.00 Build 0)  -->
<!DOCTYPE svg PUBLIC "-//W3C//DTD SVG 1.1//EN" "http://www.w3.org/Graphics/SVG/1.1/DTD/svg11.dtd">
<svg version="1.1" id="Layer_1" xmlns="http://www.w3.org/2000/svg" xmlns:xlink="http://www.w3.org/1999/xlink" x="0px" y="0px"
	 width="23.914px" height="37.035px" viewBox="0 0 23.914 37.035" enable-background="new 0 0 23.914 37.035" xml:space="preserve">
<path fill="#142633" d="M11.405,15.083h1.103c0.859,0,0.982,1.226,0.123,1.471l0.246,3.923l-0.86,2.453l-0.979-2.453l0.245-3.923
	C10.425,16.31,10.546,15.083,11.405,15.083L11.405,15.083z M12.019,0c3.434,0,6.131,2.82,6.131,6.254
	c0,3.434-2.697,6.132-6.131,6.132c-3.436,0-6.255-2.698-6.255-6.132C5.765,2.82,8.584,0,12.019,0z M7.726,15.452l4.293,10.792
	l4.168-10.792c4.293,0,7.727,2.698,7.727,7.113v12.018c0,1.35-1.104,2.453-2.33,2.453H2.454C1.104,37.035,0,35.932,0,34.582V22.564
	C0,18.149,3.435,15.452,7.726,15.452L7.726,15.452z"/>
</svg>
