<?xml version="1.0" encoding="utf-8"?>
<!-- Generator: Adobe Illustrator 16.0.0, SVG Export Plug-In . SVG Version: 6.00 Build 0)  -->
<!DOCTYPE svg PUBLIC "-//W3C//DTD SVG 1.1//EN" "http://www.w3.org/Graphics/SVG/1.1/DTD/svg11.dtd">
<svg version="1.1" id="Layer_1" xmlns="http://www.w3.org/2000/svg" xmlns:xlink="http://www.w3.org/1999/xlink" x="0px" y="0px"
	 width="32.625px" height="22.084px" viewBox="0 0 32.625 22.084" enable-background="new 0 0 32.625 22.084" xml:space="preserve">
<g>
	<path fill="#142633" d="M27.706,22.085H0v-6.081h27.706V22.085z"/>
	<path fill="#142633" d="M30.157,22.085h-1.622v-6.081h1.622V22.085z"/>
	<path fill="#142633" d="M32.625,22.085h-1.623v-6.081h1.623V22.085z"/>
	<path fill="#142633" d="M27.317,3.987c-0.508-0.706-1.048-1.085-1.48-1.389c-0.69-0.487-1.006-0.709-0.909-1.977
		c0.025-0.318-0.213-0.596-0.529-0.62c-0.311-0.025-0.596,0.213-0.619,0.531c-0.148,1.92,0.636,2.473,1.394,3.007
		c0.4,0.282,0.814,0.574,1.21,1.123c0.3,0.415,0.169,0.668-0.816,1.592C24.769,7,23.778,7.928,23.778,9.324
		c0,2.644,4.722,5.72,5.261,6.062c0.096,0.061,0.202,0.09,0.31,0.09c0.189,0,0.377-0.095,0.485-0.268
		c0.172-0.27,0.092-0.625-0.177-0.796C27.83,13.25,24.93,10.84,24.93,9.323c0-0.895,0.724-1.572,1.424-2.227
		C27.161,6.34,28.266,5.305,27.317,3.987L27.317,3.987z"/>
	<path fill="#142633" d="M31.85,15.477c0.191,0,0.377-0.096,0.486-0.266c0.172-0.271,0.092-0.625-0.176-0.796
		c-1.828-1.163-4.726-3.572-4.726-5.089c0-0.896,0.723-1.572,1.423-2.227c0.808-0.756,1.914-1.792,0.965-3.109
		c-0.509-0.705-1.048-1.085-1.481-1.391c-0.69-0.487-1.006-0.709-0.907-1.977c0.024-0.317-0.214-0.595-0.531-0.619
		c-0.313-0.025-0.594,0.213-0.619,0.53c-0.147,1.92,0.636,2.473,1.395,3.008c0.4,0.282,0.814,0.574,1.209,1.123
		c0.301,0.415,0.171,0.668-0.816,1.592c-0.796,0.746-1.788,1.674-1.788,3.069c0,2.644,4.723,5.72,5.261,6.063
		C31.637,15.446,31.743,15.477,31.85,15.477L31.85,15.477z"/>
</g>
</svg>
