<?xml version="1.0" encoding="utf-8"?>
<!-- Generator: Adobe Illustrator 16.0.0, SVG Export Plug-In . SVG Version: 6.00 Build 0)  -->
<!DOCTYPE svg PUBLIC "-//W3C//DTD SVG 1.1//EN" "http://www.w3.org/Graphics/SVG/1.1/DTD/svg11.dtd">
<svg version="1.1" id="Layer_1" xmlns="http://www.w3.org/2000/svg" xmlns:xlink="http://www.w3.org/1999/xlink" x="0px" y="0px"
	 width="29.871px" height="25.604px" viewBox="0 0 29.871 25.604" enable-background="new 0 0 29.871 25.604" xml:space="preserve">
<path fill="#142633" d="M9.601,0L8,4.268H4.268C1.903,4.268,0,6.171,0,8.534v12.803c0,2.363,1.902,4.267,4.269,4.267h21.334
	c2.365,0,4.269-1.902,4.269-4.267V8.534c0-2.363-1.902-4.267-4.269-4.267H21.87L20.27,0H9.601z M14.936,7.468
	c4.105,0,7.467,3.361,7.467,7.467s-3.363,7.467-7.467,7.467c-4.106,0-7.47-3.361-7.47-7.467S10.832,7.468,14.936,7.468z
	 M14.936,10.669c-2.377,0-4.27,1.891-4.27,4.267s1.893,4.268,4.27,4.268c2.375,0,4.268-1.892,4.268-4.268
	S17.311,10.669,14.936,10.669z"/>
</svg>
