<?xml version="1.0" encoding="utf-8"?>
<!-- Generator: Adobe Illustrator 16.0.0, SVG Export Plug-In . SVG Version: 6.00 Build 0)  -->
<!DOCTYPE svg PUBLIC "-//W3C//DTD SVG 1.1//EN" "http://www.w3.org/Graphics/SVG/1.1/DTD/svg11.dtd">
<svg version="1.1" id="Layer_1" xmlns="http://www.w3.org/2000/svg" xmlns:xlink="http://www.w3.org/1999/xlink" x="0px" y="0px"
	 width="29.557px" height="30.313px" viewBox="0 0 29.557 30.313" enable-background="new 0 0 29.557 30.313" xml:space="preserve">
<g>
	<path fill="#142633" d="M26.677,26.145V6.593H2.88v19.552H0v4.168h29.557v-4.168H26.677z M11.135,14.697l0.523-1.96l0.454-1.689
		l0.426-1.587h4.048l-1.523,5.236h3.938l-1.656,2.162l-4.691,6.117l1.78-6.116h-3.877L11.135,14.697z"/>
	<path fill="#142633" d="M6.366,0.758h3.032c0.209,0,0.379-0.17,0.379-0.379S9.607,0,9.398,0H6.366C6.157,0,5.988,0.169,5.988,0.379
		C5.988,0.588,6.157,0.758,6.366,0.758z"/>
	<path fill="#142633" d="M6.366,1.743h3.032c0.209,0,0.379-0.169,0.379-0.38c0-0.21-0.17-0.379-0.379-0.379H6.366
		c-0.209,0-0.378,0.169-0.378,0.379C5.988,1.574,6.157,1.743,6.366,1.743z"/>
	<path fill="#142633" d="M6.366,2.728h3.032c0.209,0,0.379-0.169,0.379-0.379c0-0.209-0.17-0.379-0.379-0.379H6.366
		c-0.209,0-0.378,0.17-0.378,0.379C5.988,2.559,6.157,2.728,6.366,2.728z"/>
	<path fill="#142633" d="M6.366,3.713h3.032c0.209,0,0.379-0.17,0.379-0.379s-0.17-0.379-0.379-0.379H6.366
		c-0.209,0-0.378,0.17-0.378,0.379S6.157,3.713,6.366,3.713z"/>
	<path fill="#142633" d="M6.366,4.698h3.032c0.209,0,0.379-0.171,0.379-0.38S9.607,3.94,9.398,3.94H6.366
		c-0.209,0-0.378,0.169-0.378,0.379C5.988,4.528,6.157,4.698,6.366,4.698z"/>
	<path fill="#142633" d="M6.366,5.684h3.032c0.209,0,0.379-0.169,0.379-0.379s-0.17-0.379-0.379-0.379H6.366
		c-0.209,0-0.378,0.169-0.378,0.379S6.157,5.684,6.366,5.684z"/>
	<path fill="#142633" d="M20.159,0.758h3.032c0.209,0,0.379-0.17,0.379-0.379S23.4,0,23.191,0h-3.032
		c-0.208,0-0.378,0.169-0.378,0.379C19.781,0.588,19.951,0.758,20.159,0.758z"/>
	<path fill="#142633" d="M20.159,1.743h3.032c0.209,0,0.379-0.169,0.379-0.38c0-0.21-0.17-0.379-0.379-0.379h-3.032
		c-0.208,0-0.378,0.169-0.378,0.379C19.781,1.574,19.951,1.743,20.159,1.743z"/>
	<path fill="#142633" d="M20.159,2.728h3.032c0.209,0,0.379-0.169,0.379-0.379c0-0.209-0.17-0.379-0.379-0.379h-3.032
		c-0.208,0-0.378,0.17-0.378,0.379C19.781,2.559,19.951,2.728,20.159,2.728z"/>
	<path fill="#142633" d="M20.159,3.713h3.032c0.209,0,0.379-0.17,0.379-0.379s-0.17-0.379-0.379-0.379h-3.032
		c-0.208,0-0.378,0.17-0.378,0.379S19.951,3.713,20.159,3.713z"/>
	<path fill="#142633" d="M20.159,4.698h3.032c0.209,0,0.379-0.171,0.379-0.38S23.4,3.94,23.191,3.94h-3.032
		c-0.208,0-0.378,0.169-0.378,0.379C19.781,4.528,19.951,4.698,20.159,4.698z"/>
	<path fill="#142633" d="M20.159,5.684h3.032c0.209,0,0.379-0.169,0.379-0.379s-0.17-0.379-0.379-0.379h-3.032
		c-0.208,0-0.378,0.169-0.378,0.379S19.951,5.684,20.159,5.684z"/>
</g>
</svg>
