<?xml version="1.0" encoding="utf-8"?>
<!-- Generator: Adobe Illustrator 16.0.0, SVG Export Plug-In . SVG Version: 6.00 Build 0)  -->
<!DOCTYPE svg PUBLIC "-//W3C//DTD SVG 1.1//EN" "http://www.w3.org/Graphics/SVG/1.1/DTD/svg11.dtd">
<svg version="1.1" id="Layer_1" xmlns="http://www.w3.org/2000/svg" xmlns:xlink="http://www.w3.org/1999/xlink" x="0px" y="0px"
	 width="32.188px" height="32.168px" viewBox="0 0 32.188 32.168" enable-background="new 0 0 32.188 32.168" xml:space="preserve">
<g>
	<path fill="#142633" d="M28.359,10.111L11.33,0.256c-0.938-0.537-2.214-0.201-2.748,0.737L3.889,9.105
		c-0.535,0.939-0.201,2.213,0.738,2.75l4.961,2.883L8.18,17.152l2.279,1.341L8.38,24.527l-3.888,1.607v-3.15H0v9.185h4.492v-3.15
		l6.102-2.48l2.278-6.705l2.413,1.407l1.408-2.414l4.963,2.882c0.938,0.537,2.211,0.202,2.748-0.736l4.693-8.112
		C29.635,11.921,29.299,10.647,28.359,10.111L28.359,10.111z"/>
	<path fill="#142633" d="M26.328,20.625l3.42-5.921l2.439,1.408l-3.42,5.92L26.328,20.625z"/>
</g>
</svg>
