<?xml version="1.0" encoding="utf-8"?>
<!-- Generator: Adobe Illustrator 16.0.0, SVG Export Plug-In . SVG Version: 6.00 Build 0)  -->
<!DOCTYPE svg PUBLIC "-//W3C//DTD SVG 1.1//EN" "http://www.w3.org/Graphics/SVG/1.1/DTD/svg11.dtd">
<svg version="1.1" id="Layer_1" xmlns="http://www.w3.org/2000/svg" xmlns:xlink="http://www.w3.org/1999/xlink" x="0px" y="0px"
	 width="32.184px" height="30.011px" viewBox="0 0 32.184 30.011" enable-background="new 0 0 32.184 30.011" xml:space="preserve">
<g>
	<path fill="#142633" d="M3.46,28.159c-0.016,0.049-0.023,0.1-0.023,0.149c0,0.939,0.724,1.702,1.613,1.702
		c0.803,0,1.44-0.636,1.6-1.587l1.328-4.293H4.707L3.46,28.159z"/>
	<path fill="#142633" d="M27.478,24.13h-3.271l1.328,4.294c0.158,0.951,0.797,1.587,1.602,1.587c0.889,0,1.611-0.763,1.611-1.702
		c0-0.051-0.008-0.102-0.023-0.148L27.478,24.13z"/>
	<path fill="#142633" d="M6.182,11.416v5.529h19.82v-5.529c0-1.406,0.828-2.622,2.025-3.183c-0.029-1.055-0.254-2.08-0.666-3.052
		c-0.428-1.008-1.041-1.915-1.818-2.693c-0.779-0.778-1.688-1.392-2.693-1.819C21.804,0.225,20.697,0,19.558,0h-6.93
		c-1.14,0-2.247,0.225-3.291,0.668C8.328,1.097,7.422,1.709,6.644,2.488c-0.78,0.779-1.393,1.687-1.82,2.693
		C4.41,6.153,4.187,7.179,4.158,8.234C5.353,8.795,6.182,10.01,6.182,11.416L6.182,11.416z"/>
	<path fill="#142633" d="M32.179,18.404v-6.988c0-1.378-1.123-2.499-2.5-2.499h-0.166c-1.379,0-2.498,1.121-2.498,2.499v6.544H5.168
		v-6.544c0-1.378-1.121-2.499-2.499-2.499H2.503c-1.378,0-2.499,1.121-2.499,2.499v6.988C0.001,18.425,0,18.445,0,18.467v4.142
		c0,0.281,0.228,0.507,0.508,0.507h31.167c0.279,0,0.508-0.227,0.508-0.507v-4.142C32.181,18.444,32.181,18.424,32.179,18.404
		L32.179,18.404z"/>
</g>
</svg>
