<?xml version="1.0" encoding="utf-8"?>
<!-- Generator: Adobe Illustrator 16.0.0, SVG Export Plug-In . SVG Version: 6.00 Build 0)  -->
<!DOCTYPE svg PUBLIC "-//W3C//DTD SVG 1.1//EN" "http://www.w3.org/Graphics/SVG/1.1/DTD/svg11.dtd">
<svg version="1.1" id="Layer_1" xmlns="http://www.w3.org/2000/svg" xmlns:xlink="http://www.w3.org/1999/xlink" x="0px" y="0px"
	 width="34.636px" height="25.547px" viewBox="0 0 34.636 25.547" enable-background="new 0 0 34.636 25.547" xml:space="preserve">
<g>
	<path fill="#142633" d="M17.304,25.548c-1.008,0-1.829-0.815-1.829-1.823c0-1.012,0.821-1.828,1.829-1.828
		c1.013,0,1.824,0.815,1.824,1.828C19.127,24.732,18.316,25.548,17.304,25.548z"/>
	<path fill="#142633" d="M23.767,19.85c-0.721,0.713-1.879,0.713-2.596,0c-1.023-1.024-2.415-1.601-3.868-1.601
		c-1.45,0-2.845,0.575-3.869,1.601c-0.725,0.689-1.857,0.674-2.567-0.031c-0.698-0.702-0.711-1.838-0.031-2.561
		c1.719-1.711,4.043-2.668,6.468-2.668c2.419,0,4.74,0.958,6.464,2.668C24.481,17.977,24.481,19.137,23.767,19.85L23.767,19.85z"/>
	<path fill="#142633" d="M28.93,14.684c-0.718,0.709-1.874,0.709-2.583,0c-2.406-2.387-5.657-3.725-9.043-3.725
		c-3.388,0-6.635,1.338-9.04,3.725c-0.719,0.688-1.852,0.674-2.553-0.03c-0.709-0.699-0.725-1.839-0.035-2.56
		c3.09-3.069,7.268-4.791,11.628-4.791c4.354,0,8.531,1.722,11.626,4.791C29.642,12.81,29.642,13.967,28.93,14.684L28.93,14.684z"/>
	<path fill="#142633" d="M34.103,9.521c-0.717,0.708-1.878,0.708-2.602,0c-3.767-3.765-8.875-5.874-14.198-5.874
		c-5.324,0-10.438,2.109-14.208,5.874c-0.719,0.684-1.854,0.668-2.553-0.034C-0.169,8.785-0.18,7.648,0.506,6.925
		c4.464-4.437,10.501-6.926,16.797-6.926c6.294,0,12.334,2.489,16.799,6.926C34.814,7.645,34.814,8.802,34.103,9.521L34.103,9.521z"
		/>
</g>
</svg>
